<svg xmlns="http://www.w3.org/2000/svg" xmlns:xlink="http://www.w3.org/1999/xlink" viewBox="0 0 3710 3710" style="enable-background:new 0 0 3710 3710" xml:space="preserve"><path style="fill:#FFF0" d="M0 0h3710v3710H0z"/><path style="fill:#f4f7fa" d="M3012.83 990.375C2407.096 227.55 973.039 184.913 551.37 789.95c-232.337 333.372-135.249 831.705-87.345 1077.584 88.155 452.482 305.534 743.779 353.001 805.568 115.176 149.93 394.937 514.113 815.862 597.361 719.215 142.242 1616.634-581.977 1666.354-1399.057 28.663-471.067-234.043-815.081-286.412-881.031z"/><defs><path id="a" d="M2621.778 2850.194c-86.652-99.341-199.676-259.146-237.281-473.742-43.18-246.415 52.547-339.865 54.039-623.421 2.13-404.768-269.259-582.514-161.326-751.609 52.635-82.46 169.349-131.882 263.002-111.067 267.198 59.388 480.387 720.225 259.764 1106.622-99.78 174.756-233.994 215.807-283.017 408.063-43.317 169.882 36.086 336.234 104.819 445.154z"/></defs><linearGradient id="b" gradientUnits="userSpaceOnUse" x1="2321.579" y1="913.673" x2="2842.368" y2="2570.728"><stop offset="0" style="stop-color:#ff9085"/><stop offset="1" style="stop-color:#fb6fbb"/></linearGradient><use xlink:href="#a" style="overflow:visible;fill:url(#b)"/><clipPath id="c"><use xlink:href="#a" style="overflow:visible"/></clipPath><g style="clip-path:url(#c)"><path style="fill:#fff" d="M2472.081 2570.304c-8.211-53.918-11.795-108.832-10.654-163.215 2.626-125.006 30.09-204.66 64.86-305.506 22.592-65.522 48.197-139.786 71.442-240.514 43.482-188.416 54.476-252.758 49-346.434-10.843-185.513-80.807-326.348-121.548-393.788-57.79-95.668-132.991-178.164-223.512-245.197l2.156-2.906c90.899 67.315 166.417 150.159 224.453 246.232 40.913 67.726 111.171 209.158 122.06 395.448 5.504 94.129-5.511 158.643-49.085 347.459-23.291 100.914-48.927 175.273-71.547 240.877-34.668 100.547-62.048 179.967-64.664 304.405-1.137 54.175 2.433 108.879 10.612 162.594l-3.573.545z"/><path style="fill:#fff" d="m2630.308 1387.741-1.208-2.722c-52.321-117.831-160.702-162.592-242.411-179.393-88.73-18.247-166.083-8.404-166.859-8.302l-.47-3.584c.776-.104 78.645-10.022 167.958 8.323 81.931 16.828 190.42 61.515 243.84 178.71 8.832-11.858 47.723-67.035 69.922-147.015 23.077-83.131 32.323-210.873-54.687-347.341l3.047-1.945c87.765 137.646 78.399 266.52 55.087 350.394-25.246 90.842-71.891 149.962-72.358 150.548l-1.861 2.327zM2613.964 1810.614c-1.576 0-2.433-.021-2.499-.023l-1.52-.046-.218-1.502c-18.738-129.511-81.597-204.182-131.029-244.016-53.592-43.189-103.414-55.91-103.912-56.033l.87-3.51c.502.125 50.973 12.985 105.172 56.616 49.797 40.086 113.06 115.073 132.254 244.893h.491c22.61 0 229.335-5.1 329.365-184.261l3.159 1.762c-55.638 99.656-143.666 144.948-207.712 165.397-61.137 19.519-112.683 20.723-124.421 20.723zM2597.886 2086.691c-38.743 0-61.929-7.974-62.227-8.079l-1.222-.432.014-1.295c1.601-140.277-152.52-303.582-154.078-305.214l2.619-2.496c1.562 1.639 155.728 164.965 155.085 306.416 7.049 2.161 44.188 12.276 99.714 4.732 56.857-7.73 145.176-36.098 243.033-127.349l2.464 2.645c-98.65 91.993-187.823 120.556-245.251 128.319-14.722 1.991-28.18 2.753-40.151 2.753z"/></g><defs><path id="d" d="M2427.931 2718.985c-45.591-72.07-104.148-189.972-86.856-324.881 30.167-235.359 257.232-257.575 363.644-541.072 85.826-228.651-16.613-334.812 109.097-515.82 21.042-30.298 130.54-194.364 268.833-181.945 77.93 6.996 130.407 66.839 140.259 78.074 148.891 169.789 78.548 563.986-123.77 816.256-116.24 144.939-176.06 138.947-401.009 345.797-132.183 121.547-218.787 242.694-270.198 323.591z"/></defs><linearGradient id="e" gradientUnits="userSpaceOnUse" x1="3262.677" y1="1149.415" x2="3948.51" y2="-92.985"><stop offset=".004" style="stop-color:#e38ddd"/><stop offset="1" style="stop-color:#9571f6"/></linearGradient><use xlink:href="#d" style="overflow:visible;fill:url(#e)"/><clipPath id="f"><use xlink:href="#d" style="overflow:visible"/></clipPath><g style="clip-path:url(#f)"><path style="fill:#fff" d="M2441.432 2822.413c-39.807-201.609-19.292-357.06 60.971-462.034 39.301-51.4 78.543-73.5 120.088-96.897 44.63-25.134 90.776-51.122 138.383-116.864 46.255-63.882 53.234-109.515 62.066-167.285 7.951-52.01 17.846-116.741 59.882-215.17 36.844-86.271 70.273-133.492 99.763-175.154 31.923-45.094 57.134-80.713 74.762-149.276 28.799-112.009 16.639-234.875-36.139-365.184l3.349-1.359c53.079 131.043 65.288 254.669 36.293 367.445-17.794 69.207-43.177 105.065-75.313 150.464-29.388 41.513-62.694 88.567-99.387 174.485-41.857 98.006-51.714 162.485-59.637 214.294-8.906 58.255-15.94 104.268-62.712 168.86-48.066 66.384-94.568 92.57-139.535 117.894-41.215 23.21-80.144 45.132-118.992 95.944-79.607 104.112-99.893 258.589-60.297 459.134l-3.545.703z"/><path style="fill:#fff" d="m2969.656 1610.802-.197-2.412c-.242-2.943-25.843-295.048-165.36-361.184l1.551-3.268c134.568 63.791 164.409 333.316 167.189 361.748 142.245-55.809 224.319-153.32 268.184-225.481 47.768-78.589 61.739-144.786 61.873-145.444l3.545.727c-.137.667-14.238 67.477-62.329 146.596-44.381 73.018-127.631 171.819-272.2 227.845l-2.256.873z"/><path style="fill:#fff" d="M2848.445 1871.618c-.878 0-1.359-.007-1.415-.009l-1.555-.03-.204-1.543c-10.275-78.164-46.192-163.254-74.517-220.87-30.705-62.466-59.328-106.968-59.615-107.41l3.04-1.962c.284.444 29.027 45.123 59.823 107.777 28.251 57.476 64.038 142.213 74.646 220.432 11.521-.014 85.932-1.311 180.107-30.898 94.111-29.566 227.781-94.245 330.141-234.474l2.92 2.131c-102.975 141.074-237.441 206.115-332.11 235.837-95.055 29.841-170.144 31.019-181.261 31.019zM2767.154 2252.409c-65.018 0-103.544-8.781-104.407-8.988l-1.854-.44.537-1.829c49.176-167.145-77.234-355.575-78.519-357.458l2.991-2.036c1.288 1.89 127.733 190.313 79.54 358.647 20.746 4.291 211.77 39.093 459.569-72.096l1.481 3.3c-147.797 66.313-275.558 80.9-359.338 80.9z"/></g><g><linearGradient id="g" gradientUnits="userSpaceOnUse" x1="-271.331" y1="969.755" x2="-1502.238" y2="1980.859" gradientTransform="matrix(.9975 -.069 .069 .9975 3435.64 969.42)"><stop offset="0" style="stop-color:#aa80f9"/><stop offset=".996" style="stop-color:#6165d7"/></linearGradient><path style="fill:url(#g)" d="M2397.386 2654.304c29.993-49.202 81.566-123.868 162.214-197.638 143.446-131.212 235.711-128.632 276.971-230.196 42.709-105.13-35.958-157.604 17.69-277.523 4.512-10.083 63.083-136.554 162.67-140.814 69.668-2.98 122.003 55.452 146.56 82.868 95.304 106.405 150.718 306.527 57.517 456.226-88.363 141.928-265.609 167.082-322.035 174.709-98.99 13.38-134.663-12.318-234.158 3.977-120.997 19.816-211.297 81.253-267.429 128.391z"/></g><g><defs><path id="h" d="M1375.271 3018.585c45.591-72.069 104.148-189.972 86.856-324.881-30.167-235.359-257.232-257.575-363.643-541.072-85.826-228.651 16.612-334.812-109.097-515.82-21.042-30.298-130.54-194.363-268.833-181.945-77.93 6.996-130.407 66.839-140.259 78.073-148.891 169.789-78.548 563.986 123.77 816.256 116.24 144.939 176.059 138.947 401.009 345.797 132.182 121.548 218.786 242.695 270.197 323.592z"/></defs><linearGradient id="i" gradientUnits="userSpaceOnUse" x1="5203.568" y1="11478.381" x2="6392.884" y2="14061.241"><stop offset=".004" style="stop-color:#e38ddd"/><stop offset="1" style="stop-color:#9571f6"/></linearGradient><use xlink:href="#h" style="overflow:visible;fill:url(#i)"/><clipPath id="j"><use xlink:href="#h" style="overflow:visible"/></clipPath><g style="clip-path:url(#j)"><path style="fill:#fff" d="m1361.77 3122.014-3.545-.702c39.596-200.546 19.31-355.02-60.297-459.136-38.849-50.812-77.778-72.734-118.992-95.944-44.967-25.325-91.468-51.51-139.535-117.894-46.771-64.592-53.806-110.605-62.712-168.86-7.923-51.809-17.78-116.288-59.637-214.294-36.69-85.917-69.999-132.969-99.387-174.483-32.137-45.399-57.52-81.257-75.314-150.466-28.995-112.776-16.786-236.4 36.293-367.443l3.349 1.359c-52.777 130.31-64.937 253.174-36.139 365.183 17.629 68.565 42.843 104.184 74.763 149.279 29.494 41.66 62.919 88.881 99.763 175.15 42.036 98.429 51.932 163.159 59.882 215.17 8.832 57.771 15.81 103.403 62.066 167.285 47.607 65.741 93.753 91.73 138.383 116.864 41.545 23.396 80.786 45.497 120.088 96.897 80.264 104.976 100.778 260.426 60.971 462.035z"/><path style="fill:#fff" d="m833.546 1910.402-2.257-.874c-144.568-56.026-227.819-154.827-272.2-227.845-48.091-79.119-62.192-145.929-62.329-146.596l3.546-.728c.133.662 14.143 66.966 61.95 145.571 43.861 72.119 125.922 169.573 268.107 225.356 2.78-28.432 32.621-297.957 167.189-361.748l1.552 3.268c-139.535 66.145-165.118 358.241-165.36 361.183l-.198 2.413z"/><path style="fill:#fff" d="M954.76 2171.219c-11.11 0-86.203-1.178-181.265-31.022-94.669-29.722-229.135-94.763-332.11-235.837l2.921-2.131c102.396 140.277 236.121 204.958 330.271 234.517 94.136 29.555 168.446 30.845 179.977 30.857 10.608-78.22 46.396-162.957 74.647-220.433 30.796-62.654 59.538-107.333 59.823-107.777l3.04 1.962c-.288.442-28.932 44.978-59.637 107.452-28.314 57.606-64.221 142.678-74.496 220.83l-.204 1.543-1.555.03a74.85 74.85 0 0 1-1.412.009zM1036.048 2552.009c-83.78 0-211.528-14.578-359.34-80.902l1.481-3.3c247.789 111.182 438.803 76.391 459.57 72.098-48.193-168.335 78.252-356.756 79.54-358.646l2.991 2.036c-1.285 1.883-127.695 190.312-78.519 357.457l.537 1.829-1.853.44c-.863.207-39.406 8.988-104.407 8.988z"/></g><g><linearGradient id="k" gradientUnits="userSpaceOnUse" x1="2234.922" y1="1443.471" x2="1004.015" y2="2454.575" gradientTransform="matrix(-.9975 -.069 -.069 .9975 2900.237 969.42)"><stop offset="0" style="stop-color:#ff9085"/><stop offset="1" style="stop-color:#fb6fbb"/></linearGradient><path style="fill:url(#k)" d="M1405.816 2953.904c-29.993-49.202-81.566-123.868-162.214-197.638-143.446-131.212-235.711-128.632-276.971-230.196-42.709-105.13 35.958-157.604-17.691-277.523-4.512-10.083-63.083-136.554-162.67-140.814-69.668-2.98-122.003 55.452-146.56 82.868-95.304 106.406-150.718 306.527-57.517 456.226 88.363 141.927 265.609 167.082 322.035 174.709 98.99 13.38 134.662-12.318 234.158 3.977 120.998 19.817 211.298 81.253 267.43 128.391z"/></g></g><g><linearGradient id="l" gradientUnits="userSpaceOnUse" x1="877.88" y1="972.08" x2="1612.699" y2="940.131"><stop offset="0" style="stop-color:#ab316d"/><stop offset="1" style="stop-color:#792d3d"/></linearGradient><path style="fill:url(#l)" d="M2115.966 1341.043c-.671.066-1.339.099-2 .099-10.606 0-19.669-8.662-20.696-20.233-18.226-205.408-80.579-400.572-175.573-549.548-84.152-131.979-184.337-210.735-268.044-210.735h-.28c-304.887.638-368.664 752.478-369.271 760.075-.986 12.303-11.022 21.413-22.522 20.359-11.452-1.059-19.939-11.888-18.956-24.186 2.612-32.678 67.891-800.242 410.667-800.963h.366c98.904 0 209.093 83.87 302.387 230.183 98.909 155.122 163.783 357.752 182.667 570.567 1.092 12.292-7.301 23.209-18.745 24.382z"/><linearGradient id="m" gradientUnits="userSpaceOnUse" x1="801.07" y1="2168.721" x2="1488.327" y2="2168.721"><stop offset="0" style="stop-color:#ffc444"/><stop offset=".996" style="stop-color:#f36f56"/></linearGradient><path style="fill:url(#m)" d="m843.801 2888.493 401.35 218.246 243.176-801.504-400.687-1074.532-113.618 29.922-172.394 1543.22c-3.903 34.932 12.949 68.756 42.173 84.648z"/><linearGradient id="n" gradientUnits="userSpaceOnUse" x1="986.612" y1="2168.72" x2="1488.327" y2="2168.72"><stop offset="0" style="stop-color:#ffc444"/><stop offset=".996" style="stop-color:#f36f56"/></linearGradient><path style="opacity:.3;fill:url(#n)" d="M1488.327 2305.234 1087.64 1230.703l-67.017 17.649c-9.292 143.466-5.209 261.543 1.103 347.512 26.86 365.844 116.067 467.651 72.852 722.87-35.933 212.212-114.404 241.015-107.545 383.79 7.472 155.499 108.448 285.712 228.501 388.111l29.615 16.102 243.178-801.503z"/><linearGradient id="o" gradientUnits="userSpaceOnUse" x1="1828.715" y1="2052.518" x2="3028.877" y2="4074.609"><stop offset="0" style="stop-color:#ffc444"/><stop offset=".996" style="stop-color:#f36f56"/></linearGradient><path style="fill:url(#o)" d="m1087.64 1230.703 1511.417 82.284 480.32 1635.009-1834.226 158.743z"/><g style="opacity:.3"><linearGradient id="p" gradientUnits="userSpaceOnUse" x1="1825.219" y1="1873.06" x2="2796.814" y2="4154.838"><stop offset="0" style="stop-color:#ffc444"/><stop offset=".996" style="stop-color:#f36f56"/></linearGradient><path style="fill:url(#p)" d="m2599.056 1312.986-788.214-42.911c-13.299 20.914-30.918 54.982-34.199 98.444-19.405 257.054 511.014 340.273 558.536 655.8 36.18 240.223-186.442 517.402-385.078 640.893-209.279 130.107-351.082 64.218-492.622 208.664-62.19 63.465-100.06 142.827-122.581 225.093l1744.479-150.974-480.321-1635.009z"/></g><linearGradient id="q" gradientUnits="userSpaceOnUse" x1="2004.458" y1="306.103" x2="1684.985" y2="3033.039"><stop offset="0" style="stop-color:#ab316d"/><stop offset="1" style="stop-color:#792d3d"/></linearGradient><path style="fill:url(#q)" d="M1551.224 1377.892c-9.447 0-17.997-6.954-20.248-17.259-4.254-19.474-102.573-479.628 36.06-705.455 39.735-64.723 95.249-104.241 164.996-117.455 358.375-67.824 579.022 758.908 588.24 794.135 3.108 11.888-3.342 24.229-14.407 27.57-11.078 3.351-22.56-3.592-25.67-15.474-2.16-8.232-219.355-823.178-540.931-762.194-58.852 11.146-103.818 43.213-137.472 98.03-128.867 209.922-31.284 666.052-30.283 670.638 2.625 12.018-4.322 24.049-15.511 26.871a19.626 19.626 0 0 1-4.774.593z"/><linearGradient id="r" gradientUnits="userSpaceOnUse" x1="2172.622" y1="199.372" x2="1248.275" y2="1957.883"><stop offset="0" style="stop-color:#ab316d"/><stop offset="1" style="stop-color:#792d3d"/></linearGradient><ellipse style="fill:url(#r)" cx="1551.37" cy="1381.264" rx="58.172" ry="62.481"/><linearGradient id="s" gradientUnits="userSpaceOnUse" x1="2755.061" y1="528.775" x2="1830.717" y2="2287.279"><stop offset="0" style="stop-color:#ab316d"/><stop offset="1" style="stop-color:#792d3d"/></linearGradient><ellipse style="fill:url(#s)" cx="2310.003" cy="1375.468" rx="58.172" ry="62.481"/><path style="fill:#d8dee8" d="m2714.723 2099.735-469.247-457.563c-9.891-9.644-24.055-12.343-36.431-6.94l-250.42 109.329c-21.103 9.213-28.377 37.383-14.707 56.955l408.696 585.156c11.297 16.173 32.532 19.74 47.886 8.043l310.972-236.923c18.102-13.792 19.684-42.033 3.251-58.057zm-536.588-296.709c-15.811 11.417-40.73 1.34-55.659-22.509-14.929-23.849-14.213-52.438 1.598-63.856 15.811-11.417 40.73-1.34 55.659 22.509 14.929 23.85 14.213 52.438-1.598 63.856z"/><path style="fill:#f4f7fa" d="m2714.723 2093.49-469.247-457.563c-9.891-9.644-24.055-12.343-36.431-6.94l-250.42 109.329c-21.103 9.213-28.377 37.383-14.707 56.955l408.696 585.156c11.297 16.174 32.532 19.74 47.886 8.043l310.972-236.923c18.102-13.792 19.684-42.033 3.251-58.057zm-536.588-296.709c-15.811 11.417-40.73 1.34-55.659-22.509-14.929-23.849-14.213-52.438 1.598-63.856 15.811-11.417 40.73-1.34 55.659 22.509 14.929 23.85 14.213 52.439-1.598 63.856z"/><path style="fill:#26264f" d="M2080.612 1684.411a3.85 3.85 0 0 1-3.545-2.348c-16.256-38.322-38.181-71.422-65.168-98.384-73.944-73.876-169.43-85.493-261.773-96.727-91.886-11.179-178.678-21.737-230.522-94.86-13.124-18.51-33.51-51.964-22.574-68.062 4.387-6.457 13.147-9.429 26.013-8.813a3.85 3.85 0 0 1 3.664 4.026c-.1 2.125-1.878 3.799-4.028 3.664-6.889-.321-15.82.356-19.28 5.45-5.81 8.553 3.015 31.823 22.487 59.281 49.874 70.344 135.023 80.703 225.171 91.67 93.638 11.391 190.462 23.17 266.284 98.923 27.69 27.666 50.17 61.588 66.813 100.826a3.849 3.849 0 0 1-3.542 5.354z"/><path style="fill:#26264f" d="M2120.693 1761.844a3.851 3.851 0 0 1-2.716-6.578c.323-.323 32.453-32.838 32.295-76.205-.096-26.638-12.216-51.999-36.021-75.376-50.48-49.572-184.417-106.984-302.587-157.638-72.126-30.917-140.253-60.12-184.99-85.299-10.147-5.712-20.878-11.134-31.901-16.116a3.85 3.85 0 0 1 3.173-7.015c11.226 5.075 22.162 10.6 32.504 16.422 44.376 24.976 112.317 54.099 184.246 84.932 118.794 50.921 253.438 108.636 304.949 159.222 25.35 24.893 38.245 52.118 38.325 80.917.132 46.619-33.151 80.21-34.568 81.617a3.83 3.83 0 0 1-2.709 1.117z"/><path style="fill:#fff" d="m2714.723 2093.49-469.248-457.563c-9.891-9.644-24.055-12.342-36.43-6.94l-22.302 9.736c5.831 21.27 14.562 45.198 27.883 69.626 69.316 127.1 183.034 121.617 209.309 209.825 23.285 78.173-54.822 120.112-65.118 229.808-5.145 54.809 6.598 127.717 69.497 219.296l283.157-215.732c18.103-13.792 19.685-42.032 3.252-58.056z"/><path style="fill:#d8dee8" d="M2293.656 1937.744c25.703 42.506 20.387 77.766-.092 92.051-21.568 15.045-52.548 3.772-75.604-34.36-21.925-36.254-23.087-74.55 1.094-91.419 24.399-17.02 53.623-.966 74.602 33.728zm-51.835 39.268c12.854 21.254 27.124 33.073 36.711 26.386 9.365-6.535 5.628-23.477-8.169-46.295-12.474-20.628-26.036-33.832-36.275-26.689-9.805 6.84-4.549 26.284 7.733 46.598zm104.892 136.584-45.745-266.722 17.863-12.462 45.53 266.872-17.648 12.312zm99.929-162.588c25.703 42.508 20.387 77.77-.09 92.055-21.35 14.894-52.329 3.618-75.606-34.361-21.925-36.258-23.087-74.551 1.096-91.421 24.401-17.02 53.623-.967 74.6 33.727zm-51.617 39.118c12.635 21.406 26.906 33.227 36.493 26.54 9.367-6.535 5.626-23.48-8.171-46.296-12.474-20.628-25.814-33.984-36.055-26.841-10.019 6.99-4.552 26.281 7.733 46.597zM2356.543 2261.15c-6.286 0-12.421-3.422-15.923-9.616-5.33-9.432-2.532-21.725 6.25-27.452l225.974-147.338c8.783-5.72 20.227-2.715 25.56 6.713 5.331 9.433 2.532 21.725-6.25 27.453l-225.974 147.338c-3.016 1.965-6.348 2.902-9.637 2.902z"/></g><g><linearGradient id="t" gradientUnits="userSpaceOnUse" x1="495.455" y1="2628.03" x2="706.126" y2="2661.887"><stop offset="0" style="stop-color:#aa80f9"/><stop offset=".996" style="stop-color:#6165d7"/></linearGradient><path style="fill:url(#t)" d="M2058.299 3112.728c0 20.519-14.568 38.171-32.441 39.231l-1259.35 76.921c-23.858 1.414-50.789-18.771-50.789-42.623v-881.323c0-23.852 27.579-43.906 51.437-42.917l1258.702 53.88c17.874.741 32.441 18.134 32.441 38.652v758.179z"/><linearGradient id="u" gradientUnits="userSpaceOnUse" x1="1283.711" y1="2622.691" x2="2156.492" y2="3664.761"><stop offset="0" style="stop-color:#aa80f9"/><stop offset=".996" style="stop-color:#6165d7"/></linearGradient><path style="fill:url(#u)" d="M2081.647 3114.167c0 20.618-14.638 38.355-32.598 39.42l-1272.8 75.452c-23.973 1.421-43.677-17.02-43.677-40.987v-885.587c0-23.967 19.703-42.759 43.677-41.765l1272.8 52.78c17.961.745 32.598 18.221 32.598 38.84v761.847z"/><linearGradient id="v" gradientUnits="userSpaceOnUse" x1="1061.541" y1="2913.129" x2="2205.185" y2="3274.28"><stop offset="0" style="stop-color:#444b8c"/><stop offset=".996" style="stop-color:#26264f"/></linearGradient><path style="fill:url(#v)" d="m2081.647 2906.557-1349.075 69.21v162.188l1349.075-79.19z"/><g style="opacity:.15"><linearGradient id="w" gradientUnits="userSpaceOnUse" x1="890.635" y1="2653.513" x2="1469.941" y2="2653.513" gradientTransform="rotate(.81 857.872 526.643)"><stop offset="0" style="stop-color:#ff9085"/><stop offset="1" style="stop-color:#fb6fbb"/></linearGradient><path style="fill:url(#w)" d="M1130.727 2553.551c-1.523 100.644-64.471 152.947-134.552 152.678-76.358-.293-137.565-58.837-136.111-154.964 1.383-91.4 58.961-156.514 144.514-150.123 83.009 6.201 127.392 70.267 126.149 152.409zm-181.271-1.93c-.794 52.503 16.385 90.664 49.948 91.286 32.303.599 48.406-32.312 49.239-87.393.754-49.8-12.02-89.083-47.294-91.199-34.321-2.059-51.133 37.119-51.893 87.306zm70.858 323.565 243.192-440.312a24.609 24.609 0 0 1 23.376-12.643c17.836 1.332 28.339 20.645 19.763 36.341l-240.502 440.193a24.612 24.612 0 0 1-20.509 12.786l-2.69.119c-19.203.85-31.924-19.658-22.63-36.484zm416.113-124.085c-1.411 93.214-55.443 144.217-115.398 146.85-64.487 2.832-116.509-48.585-115.855-137.172 1.275-84.249 50.357-146.871 123.356-144.911 71.041 1.908 109.048 59.153 107.897 135.233zm-154.459 6.118c-1.395 48.478 13.225 82.965 41.887 82.126 27.619-.808 41.433-31.903 42.204-82.845.697-46.057-9.557-81.778-39.708-82.145-29.955-.365-43.682 36.537-44.383 82.864z"/></g><path style="fill:#fff" d="M1142.472 2548.865c-1.523 100.644-64.471 152.947-134.552 152.678-76.358-.293-137.565-58.837-136.111-154.964 1.383-91.399 58.961-156.514 144.514-150.123 83.009 6.2 127.392 70.267 126.149 152.409zm-181.271-1.931c-.794 52.503 16.385 90.664 49.948 91.286 32.303.598 48.406-32.312 49.239-87.393.754-49.8-12.02-89.083-47.294-91.199-34.321-2.059-51.133 37.119-51.893 87.306zm70.858 323.566 243.192-440.312a24.609 24.609 0 0 1 23.376-12.643c17.837 1.333 28.339 20.645 19.763 36.341l-240.502 440.193a24.61 24.61 0 0 1-20.509 12.786l-2.69.119c-19.203.85-31.924-19.659-22.63-36.484zm416.113-124.085c-1.411 93.214-55.443 144.217-115.398 146.85-64.487 2.832-116.509-48.584-115.855-137.171 1.275-84.249 50.357-146.871 123.356-144.911 71.041 1.906 109.048 59.152 107.897 135.232zm-154.459 6.117c-1.395 48.478 13.225 82.964 41.887 82.126 27.619-.808 41.433-31.903 42.204-82.845.697-46.057-9.557-81.778-39.708-82.145-29.955-.364-43.682 36.538-44.383 82.864z"/><linearGradient id="x" gradientUnits="userSpaceOnUse" x1="1253.434" y1="2116.371" x2="2126.216" y2="3158.441"><stop offset="0" style="stop-color:#aa80f9"/><stop offset=".996" style="stop-color:#6165d7"/></linearGradient><path style="opacity:.3;fill:url(#x)" d="m2049.049 2313.48-1258.14-52.173c56.786 168.164 138.111 243.492 207.954 280.363 132.979 70.201 228.352 3.161 342.341 94.05 116.942 93.243 72.434 208.35 195.623 285.911 92.588 58.294 152.268 15.017 248.291 67.716 71.123 39.033 115.552 105.133 143.976 171.351l119.955-7.111c17.961-1.065 32.599-18.802 32.599-39.42V2352.32c-.001-20.619-14.639-38.095-32.599-38.84z"/><linearGradient id="y" gradientUnits="userSpaceOnUse" x1="1512.64" y1="2936.189" x2="2081.647" y2="2936.189"><stop offset="0" style="stop-color:#aa80f9"/><stop offset=".996" style="stop-color:#6165d7"/></linearGradient><path style="opacity:.3;fill:url(#y)" d="m2063.925 2716.529-30.699-29.129-29.129 30.699-30.699-29.129-29.129 30.699-30.699-29.129-29.129 30.698-30.699-29.129-29.129 30.698-30.698-29.129-29.129 30.699-30.699-29.129-29.129 30.698-30.699-29.129-29.129 30.698-30.699-29.129-29.129 30.698-39.225-37.219v459.846s-1.604 26.337-33.441 33.265l542.943-39.804c6.196-.461 12-2.202 17.211-4.905 5.472-7.038 8.854-16.228 8.854-26.102v-416.316l-17.719 18.68z"/><g><path style="fill:#fff" d="M2151.207 2701.277v418.886c0 23.375-18.616 42.793-41.917 44.513l-172.167 12.612-372.006 27.203c31.845-6.935 32.529-33.269 32.529-33.269v-459.848l40.002 37.226 20.954-21.674 8.757-9.025 30.796 29.126 29.175-30.698 30.723 29.126 29.139-30.698 30.705 29.126 29.13-30.698 30.7 29.127 29.127-30.699 30.698 29.127 29.146-30.698 30.699 29.126 29.127-30.698 30.699 29.145 29.126-30.717 31.284 29.145 33.574-34.766z"/><path style="fill:#d8dee8" d="m2088.529 2944.552-67.144 3.027a8.454 8.454 0 0 0-8.073 8.445v30.816c0 4.856 4.081 8.713 8.929 8.44l67.144-3.785a8.453 8.453 0 0 0 7.978-8.44v-30.059c0-4.817-4.021-8.661-8.834-8.444zM2088.434 3004.111l-67.144 3.785a8.453 8.453 0 0 0-7.978 8.44v32.179c0 4.881 4.122 8.748 8.992 8.437l67.144-4.286a8.453 8.453 0 0 0 7.915-8.436v-31.677c0-4.857-4.081-8.715-8.929-8.442zM2097.363 2859.135v-55.14c0-4.788-3.973-8.62-8.758-8.448l-67.144 2.417a8.454 8.454 0 0 0-8.15 8.448v55.751c0 4.818 4.021 8.662 8.835 8.445l67.144-3.028a8.454 8.454 0 0 0 8.073-8.445z"/><g><path style="fill:#d8dee8" d="m1949.024 2950.843-273.4 12.327a8.454 8.454 0 0 0-8.073 8.445v34.715c0 4.856 4.082 8.714 8.929 8.44l273.4-15.411a8.453 8.453 0 0 0 7.978-8.44v-31.632c0-4.817-4.021-8.661-8.834-8.444zM1948.929 3011.975l-273.4 15.411a8.453 8.453 0 0 0-7.978 8.44v34.761c0 4.881 4.122 8.748 8.992 8.437l273.4-17.453a8.453 8.453 0 0 0 7.915-8.436v-32.72c0-4.856-4.081-8.714-8.929-8.44zM1957.858 2865.425v-56.408c0-4.788-3.973-8.62-8.758-8.448l-273.4 9.843a8.454 8.454 0 0 0-8.15 8.448v58.893c0 4.818 4.021 8.662 8.835 8.445l273.4-12.327a8.455 8.455 0 0 0 8.073-8.446z"/></g><path style="opacity:.4;fill:#f4f7fa" d="m1936.829 3177.288-371.86 27.203c31.845-6.935 32.676-33.269 32.676-33.269v-459.848l40.002 37.226 20.954-21.674c17.476 15.812 31.523 41.202 35.424 81.443 13 133.964 75.752 125.142 149.835 130.173 74.083 5.03 108.178 90.764 78.201 157.006-13.408 29.626-7.941 59.493 14.768 81.74z"/></g></g><g><linearGradient id="z" gradientUnits="userSpaceOnUse" x1="655.862" y1="3236.547" x2="1225.464" y2="3236.547"><stop offset="0" style="stop-color:#fcb148"/><stop offset=".052" style="stop-color:#fdba46"/><stop offset=".142" style="stop-color:#ffc244"/><stop offset=".318" style="stop-color:#ffc444"/><stop offset=".485" style="stop-color:#fdb946"/><stop offset=".775" style="stop-color:#f99c4d"/><stop offset=".866" style="stop-color:#f8924f"/><stop offset="1" style="stop-color:#f8924f"/></linearGradient><path style="fill:url(#z)" d="M698.188 3193.029v54.909c0 17.743 110.836 32.126 247.558 32.126s247.558-14.383 247.558-32.126v-54.909H698.188z"/><linearGradient id="A" gradientUnits="userSpaceOnUse" x1="943.28" y1="3172.383" x2="973.309" y2="3423.769"><stop offset="0" style="stop-color:#ffdb44"/><stop offset="1" style="stop-color:#feef06"/></linearGradient><path style="fill:url(#A)" d="M1193.305 3193.029c0 17.743-110.836 32.126-247.558 32.126s-247.558-14.384-247.558-32.126c0-17.743 110.836-32.126 247.558-32.126s247.558 14.383 247.558 32.126z"/><linearGradient id="B" gradientUnits="userSpaceOnUse" x1="941.975" y1="3161.173" x2="951.197" y2="3238.377"><stop offset="0" style="stop-color:#ffdb44"/><stop offset="1" style="stop-color:#feef06"/></linearGradient><path style="fill:url(#B)" d="M945.745 3227.371c-121.085 0-247.701-11.566-247.701-33.873 0-1.225.437-3.378 1.662-3.378 1.225 0 .698 1.684.698 2.909 0 14.147 100.759 29.908 245.341 29.908 144.583 0 245.342-15.761 245.342-29.908 0-1.225.209-2.373 1.434-2.373s.929 1.635.929 2.86c.001 22.307-126.619 33.855-247.705 33.855z"/><path style="fill:#fcb048" d="M922.353 3194.819a129.722 129.722 0 0 1 7.781-4.976c2.74-1.635 6.311-3.113 10.635-4.433 4.349-1.321 9.789-2.394 16.319-3.228 6.53-.833 14.695-1.272 24.444-1.32 9.567-.047 18.541.257 26.945.912 8.378.653 15.772 1.632 22.157 2.934 6.359 1.302 11.552 2.912 15.555 4.826 3.977 1.919 6.347 4.115 7.111 6.591l27.874.282c2.023.013 3.812.177 5.344.495 1.557.318 2.311.719 2.313 1.205l.011 2.296-35.835-.345c-1.257 2.811-4.459 5.382-9.608 7.714-5.122 2.335-11.673 4.353-19.65 6.062l-13.051-1.814c-1.168-.178-2.129-.406-2.882-.683-.753-.274-1.117-.572-1.119-.897-.002-.441 1.006-.944 3.026-1.51a163.288 163.288 0 0 0 6.834-2.104 68.935 68.935 0 0 0 7.479-2.958c2.432-1.135 4.059-2.493 4.906-4.074l-84.583-.838c-2.222 1.635-4.729 3.24-7.47 4.819-2.767 1.578-6.416 3-10.973 4.262-4.557 1.263-10.23 2.286-17.02 3.076-6.816.786-15.344 1.204-25.663 1.255a254.974 254.974 0 0 1-22.692-.879c-7.393-.626-13.957-1.561-19.693-2.807-5.737-1.248-10.437-2.791-14.128-4.626-3.665-1.839-5.724-3.948-6.15-6.335l-22.948-.236c-2.023-.012-3.812-.171-5.422-.476-1.583-.307-2.389-.713-2.391-1.223l-.011-2.295 31.375.299c1.388-2.418 4.23-4.526 8.577-6.319 4.347-1.796 9.655-3.393 15.923-4.79l10.508 1.443c3.192.448 4.776.972 4.779 1.575.001.325-.645.728-1.965 1.209-1.346.482-2.899 1.059-4.711 1.727a43.075 43.075 0 0 0-5.226 2.358c-1.707.9-2.973 1.919-3.822 3.061l77.117.765zm-77.408 3.128c.63 1.506 2.036 2.801 4.168 3.891 2.131 1.094 4.781 1.989 7.973 2.692 3.193.704 6.774 1.218 10.742 1.546 3.995.329 8.17.484 12.526.462 5.082-.025 9.515-.244 13.298-.657 3.758-.414 7.073-.974 9.948-1.685 2.849-.71 5.36-1.531 7.482-2.47a41.8 41.8 0 0 0 5.715-3.053l-71.852-.726zm184.136-2.052c-.63-1.525-2.167-2.862-4.557-4.01-2.392-1.146-5.456-2.113-9.167-2.893-3.712-.783-8.045-1.364-12.999-1.745-4.928-.381-10.374-.558-16.337-.528-5.289.026-9.878.264-13.687.71-3.81.449-7.125 1.048-9.948 1.806-2.797.755-5.204 1.636-7.143 2.642a50.792 50.792 0 0 0-5.482 3.228l79.32.79z"/><linearGradient id="C" gradientUnits="userSpaceOnUse" x1="718.605" y1="897.555" x2="727.794" y2="974.486" gradientTransform="rotate(180 834.625 2063.92)"><stop offset=".004" style="stop-color:#f36f56"/><stop offset=".306" style="stop-color:#f99c4c"/><stop offset=".545" style="stop-color:#fdb946"/><stop offset=".682" style="stop-color:#ffc444"/><stop offset=".804" style="stop-color:#ffc244"/><stop offset=".867" style="stop-color:#feba46"/><stop offset=".916" style="stop-color:#fcad49"/><stop offset=".958" style="stop-color:#f99a4d"/><stop offset=".996" style="stop-color:#f58152"/><stop offset="1" style="stop-color:#f57e53"/></linearGradient><path style="fill:url(#C)" d="M945.78 3164.381c-110.382 0-225.314 9.712-243.698 28.516a22.386 22.386 0 0 1 2.009 2.115c15.495-13.055 110.397-26.199 241.689-26.199 134.662 0 231.085 13.829 242.765 27.206a22.835 22.835 0 0 1 1.851-2.098c-15.184-19.469-132.273-29.54-244.616-29.54z"/><g><linearGradient id="D" gradientUnits="userSpaceOnUse" x1="587.042" y1="3178.871" x2="1156.644" y2="3178.871"><stop offset="0" style="stop-color:#fcb148"/><stop offset=".052" style="stop-color:#fdba46"/><stop offset=".142" style="stop-color:#ffc244"/><stop offset=".318" style="stop-color:#ffc444"/><stop offset=".485" style="stop-color:#fdb946"/><stop offset=".775" style="stop-color:#f99c4d"/><stop offset=".866" style="stop-color:#f8924f"/><stop offset="1" style="stop-color:#f8924f"/></linearGradient><path style="fill:url(#D)" d="M629.369 3135.353v54.91c0 17.744 110.836 32.126 247.558 32.126 136.722 0 247.558-14.383 247.558-32.126v-54.91H629.369z"/><linearGradient id="E" gradientUnits="userSpaceOnUse" x1="874.461" y1="3114.708" x2="904.489" y2="3366.093"><stop offset="0" style="stop-color:#ffdb44"/><stop offset="1" style="stop-color:#feef06"/></linearGradient><path style="fill:url(#E)" d="M1124.485 3135.353c0 17.743-110.835 32.126-247.558 32.126s-247.558-14.383-247.558-32.126c0-17.742 110.836-32.126 247.558-32.126 136.722 0 247.558 14.384 247.558 32.126z"/><linearGradient id="F" gradientUnits="userSpaceOnUse" x1="873.155" y1="3103.497" x2="882.377" y2="3180.701"><stop offset="0" style="stop-color:#ffdb44"/><stop offset="1" style="stop-color:#feef06"/></linearGradient><path style="fill:url(#F)" d="M876.926 3169.695c-121.085 0-247.701-11.565-247.701-33.872 0-1.225.437-3.378 1.662-3.378 1.225 0 .698 1.684.698 2.908 0 14.148 100.758 29.909 245.341 29.909s245.342-15.761 245.342-29.909c0-1.225.209-2.372 1.434-2.372 1.225 0 .93 1.635.93 2.86-.001 22.306-126.621 33.854-247.706 33.854z"/><path style="fill:#fcb048" d="M853.534 3137.144a130.01 130.01 0 0 1 7.78-4.977c2.74-1.636 6.311-3.113 10.635-4.434 4.35-1.32 9.79-2.394 16.319-3.227 6.53-.833 14.695-1.272 24.444-1.32 9.568-.047 18.541.258 26.945.912 8.378.653 15.773 1.633 22.157 2.934 6.359 1.302 11.553 2.912 15.555 4.825 3.977 1.92 6.347 4.115 7.111 6.591l27.874.282c2.023.012 3.813.176 5.344.494 1.558.318 2.311.719 2.313 1.206l.011 2.295-35.835-.345c-1.257 2.811-4.459 5.382-9.608 7.714-5.122 2.334-11.672 4.353-19.65 6.062l-13.051-1.815c-1.168-.178-2.128-.405-2.881-.682-.754-.274-1.118-.572-1.12-.897-.002-.442 1.007-.944 3.026-1.509 2.02-.568 4.298-1.27 6.835-2.105a69.009 69.009 0 0 0 7.479-2.957c2.432-1.136 4.059-2.493 4.906-4.074l-84.583-.839c-2.222 1.635-4.729 3.241-7.47 4.82-2.767 1.578-6.415 3-10.972 4.262-4.557 1.261-10.231 2.286-17.021 3.074-6.815.786-15.344 1.204-25.663 1.255-7.752.038-15.3-.256-22.692-.879-7.392-.626-13.957-1.561-19.693-2.807-5.736-1.248-10.437-2.791-14.128-4.626-3.665-1.838-5.724-3.948-6.15-6.334l-22.948-.236c-2.022-.013-3.812-.171-5.422-.477-1.583-.306-2.389-.713-2.391-1.222l-.011-2.295 31.376.299c1.388-2.418 4.23-4.526 8.577-6.319 4.347-1.796 9.655-3.393 15.923-4.79l10.508 1.443c3.191.448 4.775.973 4.779 1.575.002.326-.645.728-1.965 1.21-1.346.481-2.898 1.058-4.711 1.727a43.075 43.075 0 0 0-5.226 2.358c-1.707.9-2.972 1.919-3.822 3.061l77.116.767zm-77.408 3.128c.63 1.505 2.036 2.8 4.168 3.89 2.132 1.093 4.781 1.989 7.974 2.692 3.193.703 6.774 1.218 10.742 1.547 3.995.328 8.17.483 12.525.462 5.082-.025 9.515-.245 13.298-.657 3.758-.414 7.074-.974 9.949-1.684 2.849-.71 5.359-1.533 7.481-2.471a41.705 41.705 0 0 0 5.716-3.053l-71.853-.726zm184.135-2.053c-.63-1.526-2.166-2.862-4.557-4.01-2.391-1.146-5.455-2.113-9.167-2.894-3.711-.783-8.044-1.364-12.998-1.744-4.929-.381-10.375-.558-16.338-.529-5.29.026-9.878.263-13.687.71-3.809.449-7.125 1.048-9.948 1.806-2.796.755-5.204 1.636-7.143 2.642a50.679 50.679 0 0 0-5.481 3.228l79.319.791z"/><linearGradient id="G" gradientUnits="userSpaceOnUse" x1="787.425" y1="955.231" x2="796.615" y2="1032.162" gradientTransform="rotate(180 834.625 2063.92)"><stop offset=".004" style="stop-color:#f36f56"/><stop offset=".306" style="stop-color:#f99c4c"/><stop offset=".545" style="stop-color:#fdb946"/><stop offset=".682" style="stop-color:#ffc444"/><stop offset=".804" style="stop-color:#ffc244"/><stop offset=".867" style="stop-color:#feba46"/><stop offset=".916" style="stop-color:#fcad49"/><stop offset=".958" style="stop-color:#f99a4d"/><stop offset=".996" style="stop-color:#f58152"/><stop offset="1" style="stop-color:#f57e53"/></linearGradient><path style="fill:url(#G)" d="M876.96 3106.705c-110.382 0-225.314 9.713-243.698 28.516a22.276 22.276 0 0 1 2.009 2.116c15.496-13.055 110.398-26.199 241.688-26.199 134.662 0 231.085 13.829 242.765 27.205a22.545 22.545 0 0 1 1.851-2.097c-15.183-19.469-132.272-29.541-244.615-29.541z"/></g><g><linearGradient id="H" gradientUnits="userSpaceOnUse" x1="646.424" y1="3121.364" x2="1216.026" y2="3121.364"><stop offset="0" style="stop-color:#fcb148"/><stop offset=".052" style="stop-color:#fdba46"/><stop offset=".142" style="stop-color:#ffc244"/><stop offset=".318" style="stop-color:#ffc444"/><stop offset=".485" style="stop-color:#fdb946"/><stop offset=".775" style="stop-color:#f99c4d"/><stop offset=".866" style="stop-color:#f8924f"/><stop offset="1" style="stop-color:#f8924f"/></linearGradient><path style="fill:url(#H)" d="M688.75 3077.846v54.909c0 17.744 110.836 32.126 247.559 32.126 136.722 0 247.558-14.383 247.558-32.126v-54.909H688.75z"/><linearGradient id="I" gradientUnits="userSpaceOnUse" x1="933.843" y1="3057.201" x2="963.871" y2="3308.586"><stop offset="0" style="stop-color:#ffdb44"/><stop offset="1" style="stop-color:#feef06"/></linearGradient><path style="fill:url(#I)" d="M1183.867 3077.846c0 17.743-110.835 32.126-247.558 32.126s-247.559-14.383-247.559-32.126 110.836-32.126 247.559-32.126 247.558 14.384 247.558 32.126z"/><linearGradient id="J" gradientUnits="userSpaceOnUse" x1="932.537" y1="3045.99" x2="941.76" y2="3123.195"><stop offset="0" style="stop-color:#ffdb44"/><stop offset="1" style="stop-color:#feef06"/></linearGradient><path style="fill:url(#J)" d="M936.308 3112.188c-121.085 0-247.702-11.565-247.702-33.872 0-1.225.437-3.378 1.662-3.378 1.225 0 .698 1.684.698 2.909 0 14.147 100.758 29.909 245.342 29.909s245.341-15.762 245.341-29.909c0-1.225.209-2.373 1.434-2.373 1.225 0 .93 1.635.93 2.86.001 22.307-126.619 33.854-247.705 33.854z"/><path style="fill:#fcb048" d="M912.916 3079.637a130.19 130.19 0 0 1 7.78-4.977c2.741-1.635 6.311-3.113 10.635-4.434 4.35-1.32 9.789-2.394 16.319-3.227 6.53-.833 14.695-1.272 24.444-1.32 9.568-.047 18.541.258 26.945.912 8.378.652 15.773 1.633 22.157 2.934 6.359 1.302 11.553 2.913 15.555 4.825 3.976 1.92 6.347 4.115 7.11 6.591l27.874.282c2.023.012 3.813.177 5.344.494 1.557.318 2.311.719 2.313 1.206l.011 2.295-35.835-.345c-1.257 2.811-4.459 5.382-9.608 7.714-5.122 2.335-11.672 4.353-19.65 6.062l-13.051-1.815c-1.167-.178-2.128-.405-2.881-.682-.754-.274-1.118-.572-1.12-.897-.002-.442 1.007-.945 3.026-1.509 2.02-.568 4.298-1.27 6.835-2.105a68.716 68.716 0 0 0 7.478-2.958c2.432-1.136 4.059-2.493 4.907-4.074l-84.583-.839c-2.222 1.635-4.729 3.241-7.47 4.82-2.766 1.578-6.415 3-10.972 4.262-4.557 1.262-10.231 2.286-17.02 3.074-6.815.787-15.344 1.204-25.663 1.255-7.753.038-15.3-.256-22.693-.879-7.392-.626-13.957-1.562-19.693-2.807-5.736-1.248-10.437-2.791-14.128-4.626-3.665-1.838-5.724-3.948-6.151-6.334l-22.948-.236c-2.023-.012-3.813-.171-5.422-.477-1.583-.306-2.389-.712-2.391-1.222l-.011-2.295 31.376.299c1.388-2.418 4.23-4.527 8.577-6.319 4.346-1.796 9.655-3.393 15.922-4.79l10.508 1.443c3.191.448 4.775.972 4.779 1.575.001.326-.645.728-1.965 1.21-1.346.482-2.899 1.058-4.711 1.727a43.075 43.075 0 0 0-5.226 2.358c-1.707.9-2.972 1.919-3.822 3.061l77.119.768zm-77.408 3.128c.63 1.505 2.036 2.8 4.168 3.891 2.131 1.093 4.78 1.989 7.973 2.692 3.193.703 6.774 1.218 10.742 1.547 3.995.328 8.17.483 12.526.462 5.082-.025 9.515-.245 13.298-.657 3.758-.414 7.073-.974 9.949-1.684 2.849-.71 5.36-1.533 7.481-2.471a41.8 41.8 0 0 0 5.715-3.053l-71.852-.727zm184.135-2.052c-.629-1.526-2.166-2.862-4.557-4.01-2.391-1.146-5.456-2.113-9.167-2.893-3.712-.783-8.044-1.365-12.999-1.745-4.929-.381-10.375-.558-16.337-.529-5.29.026-9.878.264-13.687.71-3.809.449-7.125 1.048-9.948 1.807-2.796.755-5.204 1.636-7.143 2.642a50.675 50.675 0 0 0-5.481 3.227l79.319.791z"/><linearGradient id="K" gradientUnits="userSpaceOnUse" x1="728.043" y1="1012.738" x2="737.232" y2="1089.669" gradientTransform="rotate(180 834.625 2063.92)"><stop offset=".004" style="stop-color:#f36f56"/><stop offset=".306" style="stop-color:#f99c4c"/><stop offset=".545" style="stop-color:#fdb946"/><stop offset=".682" style="stop-color:#ffc444"/><stop offset=".804" style="stop-color:#ffc244"/><stop offset=".867" style="stop-color:#feba46"/><stop offset=".916" style="stop-color:#fcad49"/><stop offset=".958" style="stop-color:#f99a4d"/><stop offset=".996" style="stop-color:#f58152"/><stop offset="1" style="stop-color:#f57e53"/></linearGradient><path style="fill:url(#K)" d="M936.342 3049.198c-110.382 0-225.314 9.713-243.698 28.516a22.276 22.276 0 0 1 2.009 2.116c15.495-13.056 110.397-26.199 241.688-26.199 134.662 0 231.085 13.829 242.765 27.205a22.687 22.687 0 0 1 1.851-2.098c-15.183-19.468-132.272-29.54-244.615-29.54z"/></g><g><linearGradient id="L" gradientUnits="userSpaceOnUse" x1="682.459" y1="3063.689" x2="1252.061" y2="3063.689"><stop offset="0" style="stop-color:#fcb148"/><stop offset=".052" style="stop-color:#fdba46"/><stop offset=".142" style="stop-color:#ffc244"/><stop offset=".318" style="stop-color:#ffc444"/><stop offset=".485" style="stop-color:#fdb946"/><stop offset=".775" style="stop-color:#f99c4d"/><stop offset=".866" style="stop-color:#f8924f"/><stop offset="1" style="stop-color:#f8924f"/></linearGradient><path style="fill:url(#L)" d="M724.786 3020.171v54.909c0 17.744 110.835 32.126 247.558 32.126 136.722 0 247.558-14.383 247.558-32.126v-54.909H724.786z"/><linearGradient id="M" gradientUnits="userSpaceOnUse" x1="969.878" y1="2999.525" x2="999.907" y2="3250.91"><stop offset="0" style="stop-color:#ffdb44"/><stop offset="1" style="stop-color:#feef06"/></linearGradient><ellipse style="fill:url(#M)" cx="972.344" cy="3020.171" rx="247.558" ry="32.126"/><linearGradient id="N" gradientUnits="userSpaceOnUse" x1="968.572" y1="2988.314" x2="977.794" y2="3065.519"><stop offset="0" style="stop-color:#ffdb44"/><stop offset="1" style="stop-color:#feef06"/></linearGradient><path style="fill:url(#N)" d="M972.343 3054.512c-121.085 0-247.702-11.565-247.702-33.872 0-1.225.437-3.379 1.662-3.379 1.225 0 .698 1.684.698 2.91 0 14.146 100.758 29.908 245.341 29.908 144.583 0 245.342-15.761 245.342-29.908 0-1.225.209-2.374 1.434-2.374s.929 1.635.929 2.86c.001 22.308-126.619 33.855-247.704 33.855z"/><path style="fill:#fcb048" d="M948.95 3021.961a130.01 130.01 0 0 1 7.78-4.977c2.741-1.635 6.312-3.113 10.635-4.433 4.35-1.321 9.79-2.394 16.319-3.227 6.53-.833 14.696-1.272 24.444-1.32 9.567-.047 18.541.257 26.945.912 8.379.653 15.772 1.633 22.157 2.934 6.359 1.302 11.552 2.913 15.555 4.826 3.977 1.919 6.347 4.115 7.111 6.591l27.875.282c2.023.014 3.813.177 5.344.495 1.557.318 2.311.719 2.313 1.205l.011 2.296-35.835-.345c-1.257 2.811-4.459 5.383-9.608 7.714-5.122 2.334-11.673 4.353-19.65 6.063l-13.051-1.816c-1.168-.178-2.129-.406-2.882-.682-.753-.274-1.117-.572-1.119-.897-.002-.441 1.007-.944 3.026-1.509 2.02-.568 4.298-1.27 6.834-2.106a68.609 68.609 0 0 0 7.479-2.958c2.432-1.135 4.059-2.493 4.906-4.074l-84.583-.839c-2.222 1.635-4.729 3.241-7.47 4.819-2.767 1.579-6.415 3-10.973 4.262-4.557 1.262-10.23 2.286-17.02 3.075-6.815.786-15.344 1.205-25.664 1.255a255.366 255.366 0 0 1-22.692-.879c-7.393-.626-13.957-1.562-19.694-2.807-5.736-1.249-10.436-2.791-14.127-4.626-3.665-1.839-5.724-3.948-6.15-6.335l-22.948-.235c-2.022-.013-3.812-.171-5.421-.477-1.583-.306-2.389-.713-2.392-1.223l-.011-2.295 31.375.299c1.388-2.418 4.231-4.527 8.578-6.32 4.347-1.795 9.655-3.392 15.923-4.79l10.508 1.443c3.192.448 4.776.973 4.779 1.575.002.325-.645.728-1.965 1.21-1.346.482-2.899 1.059-4.711 1.727a43.23 43.23 0 0 0-5.226 2.358c-1.707.9-2.972 1.919-3.822 3.061l77.117.768zm-77.408 3.128c.63 1.505 2.036 2.8 4.168 3.89 2.132 1.094 4.781 1.989 7.973 2.692 3.193.703 6.774 1.218 10.743 1.546 3.994.329 8.169.484 12.525.463 5.082-.025 9.514-.245 13.298-.657 3.758-.415 7.074-.974 9.949-1.684 2.848-.71 5.36-1.532 7.481-2.471a41.8 41.8 0 0 0 5.715-3.053l-71.852-.726zm184.136-2.052c-.63-1.525-2.166-2.862-4.557-4.011-2.391-1.146-5.455-2.113-9.167-2.893-3.712-.782-8.045-1.364-12.999-1.744-4.928-.381-10.374-.558-16.338-.529-5.289.026-9.877.263-13.687.71-3.81.449-7.126 1.048-9.948 1.806-2.797.755-5.204 1.635-7.143 2.642a50.679 50.679 0 0 0-5.481 3.228l79.32.791z"/><linearGradient id="O" gradientUnits="userSpaceOnUse" x1="692.008" y1="1070.414" x2="701.198" y2="1147.344" gradientTransform="rotate(180 834.625 2063.92)"><stop offset=".004" style="stop-color:#f36f56"/><stop offset=".306" style="stop-color:#f99c4c"/><stop offset=".545" style="stop-color:#fdb946"/><stop offset=".682" style="stop-color:#ffc444"/><stop offset=".804" style="stop-color:#ffc244"/><stop offset=".867" style="stop-color:#feba46"/><stop offset=".916" style="stop-color:#fcad49"/><stop offset=".958" style="stop-color:#f99a4d"/><stop offset=".996" style="stop-color:#f58152"/><stop offset="1" style="stop-color:#f57e53"/></linearGradient><path style="fill:url(#O)" d="M972.377 2991.522c-110.382 0-225.314 9.713-243.698 28.516.72.663 1.388 1.371 2.01 2.116 15.495-13.055 110.397-26.2 241.688-26.2 134.662 0 231.084 13.829 242.765 27.206a22.692 22.692 0 0 1 1.851-2.097c-15.184-19.469-132.273-29.541-244.616-29.541z"/></g><g><linearGradient id="P" gradientUnits="userSpaceOnUse" x1="655.862" y1="3001.463" x2="1225.464" y2="3001.463"><stop offset="0" style="stop-color:#fcb148"/><stop offset=".052" style="stop-color:#fdba46"/><stop offset=".142" style="stop-color:#ffc244"/><stop offset=".318" style="stop-color:#ffc444"/><stop offset=".485" style="stop-color:#fdb946"/><stop offset=".775" style="stop-color:#f99c4d"/><stop offset=".866" style="stop-color:#f8924f"/><stop offset="1" style="stop-color:#f8924f"/></linearGradient><path style="fill:url(#P)" d="M698.188 2957.945v54.909c0 17.743 110.836 32.126 247.558 32.126s247.558-14.383 247.558-32.126v-54.909H698.188z"/><linearGradient id="Q" gradientUnits="userSpaceOnUse" x1="943.28" y1="2937.3" x2="973.309" y2="3188.685"><stop offset="0" style="stop-color:#ffdb44"/><stop offset="1" style="stop-color:#feef06"/></linearGradient><path style="fill:url(#Q)" d="M1193.305 2957.945c0 17.743-110.836 32.126-247.558 32.126s-247.558-14.383-247.558-32.126 110.836-32.126 247.558-32.126 247.558 14.383 247.558 32.126z"/><linearGradient id="R" gradientUnits="userSpaceOnUse" x1="941.975" y1="2926.089" x2="951.197" y2="3003.293"><stop offset="0" style="stop-color:#ffdb44"/><stop offset="1" style="stop-color:#feef06"/></linearGradient><path style="fill:url(#R)" d="M945.745 2992.287c-121.085 0-247.701-11.565-247.701-33.872 0-1.225.437-3.379 1.662-3.379 1.225 0 .698 1.684.698 2.91 0 14.146 100.759 29.908 245.341 29.908 144.583 0 245.342-15.762 245.342-29.908 0-1.225.209-2.373 1.434-2.373s.929 1.635.929 2.86c.001 22.306-126.619 33.854-247.705 33.854z"/><path style="fill:#fcb048" d="M922.353 2959.736a129.723 129.723 0 0 1 7.781-4.977c2.74-1.635 6.311-3.113 10.635-4.434 4.349-1.32 9.789-2.394 16.319-3.227 6.53-.833 14.695-1.272 24.444-1.32 9.567-.047 18.541.257 26.945.912 8.378.652 15.772 1.632 22.157 2.934 6.359 1.302 11.552 2.912 15.555 4.826 3.977 1.919 6.347 4.115 7.111 6.59l27.874.283c2.023.013 3.812.176 5.344.494 1.557.318 2.311.719 2.313 1.206l.011 2.295-35.835-.345c-1.257 2.811-4.459 5.383-9.608 7.714-5.122 2.334-11.673 4.354-19.65 6.063l-13.051-1.816c-1.168-.178-2.129-.405-2.882-.682-.753-.273-1.117-.572-1.119-.897-.002-.441 1.006-.945 3.026-1.509a162.064 162.064 0 0 0 6.834-2.106 68.928 68.928 0 0 0 7.479-2.957c2.432-1.136 4.059-2.494 4.906-4.074l-84.583-.839c-2.222 1.635-4.729 3.241-7.47 4.82-2.767 1.579-6.416 3-10.973 4.262-4.557 1.262-10.23 2.285-17.02 3.074-6.816.786-15.344 1.205-25.663 1.255a254.597 254.597 0 0 1-22.692-.879c-7.393-.626-13.957-1.561-19.693-2.807-5.737-1.249-10.437-2.791-14.128-4.626-3.665-1.838-5.724-3.948-6.15-6.334l-22.948-.235c-2.023-.014-3.812-.171-5.422-.478-1.583-.306-2.389-.713-2.391-1.222l-.011-2.295 31.375.299c1.388-2.419 4.23-4.527 8.577-6.32 4.347-1.795 9.655-3.392 15.923-4.79l10.508 1.443c3.192.449 4.776.973 4.779 1.576.001.325-.645.727-1.965 1.209-1.346.482-2.899 1.059-4.711 1.727a43.23 43.23 0 0 0-5.226 2.358c-1.707.899-2.973 1.919-3.822 3.061l77.117.768zm-77.408 3.128c.63 1.505 2.036 2.8 4.168 3.89 2.131 1.094 4.781 1.989 7.973 2.692 3.193.703 6.774 1.218 10.742 1.547 3.995.328 8.17.483 12.526.462 5.082-.025 9.515-.245 13.298-.656 3.758-.415 7.073-.974 9.948-1.685 2.849-.71 5.36-1.532 7.482-2.471a41.691 41.691 0 0 0 5.715-3.053l-71.852-.726zm184.136-2.053c-.63-1.525-2.167-2.862-4.557-4.011-2.392-1.146-5.456-2.113-9.167-2.893-3.712-.782-8.045-1.364-12.999-1.744-4.928-.38-10.374-.558-16.337-.529-5.289.026-9.878.264-13.687.71-3.81.449-7.125 1.049-9.948 1.806-2.797.756-5.204 1.636-7.143 2.642a50.792 50.792 0 0 0-5.482 3.228l79.32.791z"/><linearGradient id="S" gradientUnits="userSpaceOnUse" x1="718.605" y1="1132.64" x2="727.794" y2="1209.57" gradientTransform="rotate(180 834.625 2063.92)"><stop offset=".004" style="stop-color:#f36f56"/><stop offset=".306" style="stop-color:#f99c4c"/><stop offset=".545" style="stop-color:#fdb946"/><stop offset=".682" style="stop-color:#ffc444"/><stop offset=".804" style="stop-color:#ffc244"/><stop offset=".867" style="stop-color:#feba46"/><stop offset=".916" style="stop-color:#fcad49"/><stop offset=".958" style="stop-color:#f99a4d"/><stop offset=".996" style="stop-color:#f58152"/><stop offset="1" style="stop-color:#f57e53"/></linearGradient><path style="fill:url(#S)" d="M945.78 2929.296c-110.382 0-225.314 9.713-243.698 28.516a22.519 22.519 0 0 1 2.009 2.116c15.495-13.055 110.397-26.199 241.689-26.199 134.662 0 231.085 13.829 242.765 27.205a22.823 22.823 0 0 1 1.851-2.097c-15.184-19.469-132.273-29.541-244.616-29.541z"/></g><g><linearGradient id="T" gradientUnits="userSpaceOnUse" x1="587.042" y1="2943.787" x2="1156.644" y2="2943.787"><stop offset="0" style="stop-color:#fcb148"/><stop offset=".052" style="stop-color:#fdba46"/><stop offset=".142" style="stop-color:#ffc244"/><stop offset=".318" style="stop-color:#ffc444"/><stop offset=".485" style="stop-color:#fdb946"/><stop offset=".775" style="stop-color:#f99c4d"/><stop offset=".866" style="stop-color:#f8924f"/><stop offset="1" style="stop-color:#f8924f"/></linearGradient><path style="fill:url(#T)" d="M629.369 2900.269v54.91c0 17.743 110.836 32.125 247.558 32.125 136.722 0 247.558-14.383 247.558-32.125v-54.91H629.369z"/><linearGradient id="U" gradientUnits="userSpaceOnUse" x1="874.461" y1="2879.624" x2="904.489" y2="3131.009"><stop offset="0" style="stop-color:#ffdb44"/><stop offset="1" style="stop-color:#feef06"/></linearGradient><ellipse style="fill:url(#U)" cx="876.927" cy="2900.269" rx="247.558" ry="32.126"/><linearGradient id="V" gradientUnits="userSpaceOnUse" x1="873.155" y1="2868.413" x2="882.377" y2="2945.617"><stop offset="0" style="stop-color:#ffdb44"/><stop offset="1" style="stop-color:#feef06"/></linearGradient><path style="fill:url(#V)" d="M876.926 2934.611c-121.085 0-247.701-11.565-247.701-33.873 0-1.225.437-3.378 1.662-3.378 1.225 0 .698 1.684.698 2.909 0 14.147 100.758 29.909 245.341 29.909s245.342-15.762 245.342-29.909c0-1.225.209-2.373 1.434-2.373 1.225 0 .93 1.635.93 2.86-.001 22.308-126.621 33.855-247.706 33.855z"/><path style="fill:#fcb048" d="M853.534 2902.06a130.01 130.01 0 0 1 7.78-4.977c2.74-1.635 6.311-3.113 10.635-4.433 4.35-1.32 9.79-2.394 16.319-3.228 6.53-.833 14.695-1.272 24.444-1.319 9.568-.048 18.541.256 26.945.912 8.378.652 15.773 1.632 22.157 2.934 6.359 1.302 11.553 2.912 15.555 4.826 3.977 1.919 6.347 4.115 7.111 6.59l27.874.282c2.023.012 3.813.177 5.344.495 1.558.318 2.311.719 2.313 1.206l.011 2.295-35.835-.345c-1.257 2.811-4.459 5.383-9.608 7.714-5.122 2.334-11.672 4.354-19.65 6.062l-13.051-1.816c-1.168-.178-2.128-.405-2.881-.681-.754-.274-1.118-.572-1.12-.897-.002-.441 1.007-.945 3.026-1.51 2.02-.568 4.298-1.269 6.835-2.105a69.009 69.009 0 0 0 7.479-2.957c2.432-1.136 4.059-2.493 4.906-4.074l-84.583-.839c-2.222 1.636-4.729 3.241-7.47 4.82-2.767 1.579-6.415 3.001-10.972 4.262-4.557 1.262-10.231 2.286-17.021 3.074-6.815.787-15.344 1.205-25.663 1.255-7.752.039-15.3-.256-22.692-.879-7.392-.626-13.957-1.562-19.693-2.807-5.736-1.248-10.437-2.79-14.128-4.626-3.665-1.838-5.724-3.948-6.15-6.335l-22.948-.235c-2.022-.012-3.812-.171-5.422-.477-1.583-.306-2.389-.713-2.391-1.222l-.011-2.295 31.376.299c1.388-2.418 4.23-4.526 8.577-6.319 4.347-1.796 9.655-3.393 15.923-4.79l10.508 1.443c3.191.448 4.775.973 4.779 1.575.002.325-.645.728-1.965 1.209-1.346.483-2.898 1.059-4.711 1.727a43.223 43.223 0 0 0-5.226 2.357c-1.707.9-2.972 1.919-3.822 3.061l77.116.768zm-77.408 3.128c.63 1.506 2.036 2.8 4.168 3.891 2.132 1.094 4.781 1.989 7.974 2.692 3.193.703 6.774 1.218 10.742 1.546 3.995.329 8.17.483 12.525.462 5.082-.024 9.515-.244 13.298-.656 3.758-.415 7.074-.974 9.949-1.685 2.849-.71 5.359-1.532 7.481-2.47a41.705 41.705 0 0 0 5.716-3.053l-71.853-.727zm184.135-2.053c-.63-1.525-2.166-2.862-4.557-4.01-2.391-1.146-5.455-2.113-9.167-2.892-3.711-.783-8.044-1.365-12.998-1.745-4.929-.38-10.375-.557-16.338-.528-5.29.026-9.878.263-13.687.709-3.809.449-7.125 1.049-9.948 1.806-2.796.756-5.204 1.636-7.143 2.642a50.675 50.675 0 0 0-5.481 3.227l79.319.791z"/><linearGradient id="W" gradientUnits="userSpaceOnUse" x1="787.425" y1="1190.316" x2="796.615" y2="1267.246" gradientTransform="rotate(180 834.625 2063.92)"><stop offset=".004" style="stop-color:#f36f56"/><stop offset=".306" style="stop-color:#f99c4c"/><stop offset=".545" style="stop-color:#fdb946"/><stop offset=".682" style="stop-color:#ffc444"/><stop offset=".804" style="stop-color:#ffc244"/><stop offset=".867" style="stop-color:#feba46"/><stop offset=".916" style="stop-color:#fcad49"/><stop offset=".958" style="stop-color:#f99a4d"/><stop offset=".996" style="stop-color:#f58152"/><stop offset="1" style="stop-color:#f57e53"/></linearGradient><path style="fill:url(#W)" d="M876.96 2871.62c-110.382 0-225.314 9.713-243.698 28.516a22.519 22.519 0 0 1 2.009 2.116c15.496-13.055 110.398-26.199 241.688-26.199 134.662 0 231.085 13.828 242.765 27.205a22.675 22.675 0 0 1 1.851-2.097c-15.183-19.468-132.272-29.541-244.615-29.541z"/></g><g><linearGradient id="X" gradientUnits="userSpaceOnUse" x1="646.424" y1="2886.28" x2="1216.026" y2="2886.28"><stop offset="0" style="stop-color:#fcb148"/><stop offset=".052" style="stop-color:#fdba46"/><stop offset=".142" style="stop-color:#ffc244"/><stop offset=".318" style="stop-color:#ffc444"/><stop offset=".485" style="stop-color:#fdb946"/><stop offset=".775" style="stop-color:#f99c4d"/><stop offset=".866" style="stop-color:#f8924f"/><stop offset="1" style="stop-color:#f8924f"/></linearGradient><path style="fill:url(#X)" d="M688.75 2842.763v54.91c0 17.742 110.836 32.126 247.559 32.126 136.722 0 247.558-14.383 247.558-32.126v-54.91H688.75z"/><linearGradient id="Y" gradientUnits="userSpaceOnUse" x1="933.843" y1="2822.117" x2="963.871" y2="3073.502"><stop offset="0" style="stop-color:#ffdb44"/><stop offset="1" style="stop-color:#feef06"/></linearGradient><ellipse style="fill:url(#Y)" cx="936.309" cy="2842.762" rx="247.559" ry="32.126"/><linearGradient id="Z" gradientUnits="userSpaceOnUse" x1="932.537" y1="2810.906" x2="941.76" y2="2888.111"><stop offset="0" style="stop-color:#ffdb44"/><stop offset="1" style="stop-color:#feef06"/></linearGradient><path style="fill:url(#Z)" d="M936.308 2877.104c-121.085 0-247.702-11.565-247.702-33.873 0-1.225.437-3.378 1.662-3.378 1.225 0 .698 1.685.698 2.91 0 14.146 100.758 29.909 245.342 29.909s245.341-15.762 245.341-29.909c0-1.225.209-2.374 1.434-2.374 1.225 0 .93 1.635.93 2.86.001 22.308-126.619 33.855-247.705 33.855z"/><path style="fill:#fcb048" d="M912.916 2844.553a129.69 129.69 0 0 1 7.78-4.977c2.741-1.635 6.311-3.113 10.635-4.433 4.35-1.32 9.789-2.394 16.319-3.228 6.53-.833 14.695-1.272 24.444-1.32 9.568-.047 18.541.257 26.945.913 8.378.652 15.773 1.632 22.157 2.934 6.359 1.302 11.553 2.912 15.555 4.826 3.976 1.919 6.347 4.115 7.11 6.59l27.874.282c2.023.013 3.813.177 5.344.494 1.557.318 2.311.719 2.313 1.206l.011 2.295-35.835-.345c-1.257 2.811-4.459 5.382-9.608 7.714-5.122 2.334-11.672 4.354-19.65 6.063l-13.051-1.815c-1.167-.178-2.128-.406-2.881-.682-.754-.274-1.118-.572-1.12-.897-.002-.441 1.007-.945 3.026-1.509 2.02-.568 4.298-1.269 6.835-2.105a68.716 68.716 0 0 0 7.478-2.958c2.432-1.136 4.059-2.493 4.907-4.074l-84.583-.838c-2.222 1.635-4.729 3.24-7.47 4.819-2.766 1.579-6.415 3.001-10.972 4.262-4.557 1.262-10.231 2.286-17.02 3.075-6.815.787-15.344 1.205-25.663 1.256-7.753.038-15.3-.256-22.693-.879-7.392-.626-13.957-1.562-19.693-2.807-5.736-1.248-10.437-2.79-14.128-4.625-3.665-1.839-5.724-3.949-6.151-6.335l-22.948-.235c-2.023-.013-3.813-.171-5.422-.477-1.583-.306-2.389-.713-2.391-1.222l-.011-2.296 31.376.299c1.388-2.418 4.23-4.526 8.577-6.319 4.346-1.796 9.655-3.393 15.922-4.79l10.508 1.443c3.191.448 4.775.973 4.779 1.576.001.325-.645.728-1.965 1.209-1.346.482-2.899 1.059-4.711 1.727a43.223 43.223 0 0 0-5.226 2.357c-1.707.9-2.972 1.919-3.822 3.061l77.119.765zm-77.408 3.128c.63 1.506 2.036 2.8 4.168 3.891 2.131 1.094 4.78 1.989 7.973 2.692 3.193.703 6.774 1.218 10.742 1.546 3.995.328 8.17.484 12.526.462 5.082-.024 9.515-.245 13.298-.657 3.758-.415 7.073-.974 9.949-1.684 2.849-.71 5.36-1.531 7.481-2.47a41.692 41.692 0 0 0 5.715-3.054l-71.852-.726zm184.135-2.052c-.629-1.525-2.166-2.862-4.557-4.011-2.391-1.146-5.456-2.113-9.167-2.893-3.712-.783-8.044-1.365-12.999-1.745-4.929-.38-10.375-.557-16.337-.528-5.29.025-9.878.263-13.687.71-3.809.449-7.125 1.048-9.948 1.806-2.796.756-5.204 1.636-7.143 2.642a50.679 50.679 0 0 0-5.481 3.228l79.319.791z"/><linearGradient id="aa" gradientUnits="userSpaceOnUse" x1="728.043" y1="1247.823" x2="737.232" y2="1324.753" gradientTransform="rotate(180 834.625 2063.92)"><stop offset=".004" style="stop-color:#f36f56"/><stop offset=".306" style="stop-color:#f99c4c"/><stop offset=".545" style="stop-color:#fdb946"/><stop offset=".682" style="stop-color:#ffc444"/><stop offset=".804" style="stop-color:#ffc244"/><stop offset=".867" style="stop-color:#feba46"/><stop offset=".916" style="stop-color:#fcad49"/><stop offset=".958" style="stop-color:#f99a4d"/><stop offset=".996" style="stop-color:#f58152"/><stop offset="1" style="stop-color:#f57e53"/></linearGradient><path style="fill:url(#aa)" d="M936.342 2814.113c-110.382 0-225.314 9.713-243.698 28.516a22.519 22.519 0 0 1 2.009 2.116c15.495-13.054 110.397-26.198 241.688-26.198 134.662 0 231.085 13.829 242.765 27.205a22.545 22.545 0 0 1 1.851-2.097c-15.183-19.469-132.272-29.542-244.615-29.542z"/></g><g><linearGradient id="ab" gradientUnits="userSpaceOnUse" x1="615.537" y1="2828.605" x2="1185.139" y2="2828.605"><stop offset="0" style="stop-color:#fcb148"/><stop offset=".052" style="stop-color:#fdba46"/><stop offset=".142" style="stop-color:#ffc244"/><stop offset=".318" style="stop-color:#ffc444"/><stop offset=".485" style="stop-color:#fdb946"/><stop offset=".775" style="stop-color:#f99c4d"/><stop offset=".866" style="stop-color:#f8924f"/><stop offset="1" style="stop-color:#f8924f"/></linearGradient><path style="fill:url(#ab)" d="M657.864 2785.087v54.909c0 17.743 110.836 32.127 247.558 32.127 136.722 0 247.558-14.384 247.558-32.127v-54.909H657.864z"/><linearGradient id="ac" gradientUnits="userSpaceOnUse" x1="902.956" y1="2764.441" x2="932.985" y2="3015.827"><stop offset="0" style="stop-color:#ffdb44"/><stop offset="1" style="stop-color:#feef06"/></linearGradient><ellipse style="fill:url(#ac)" cx="905.422" cy="2785.087" rx="247.558" ry="32.126"/><linearGradient id="ad" gradientUnits="userSpaceOnUse" x1="901.65" y1="2753.231" x2="910.872" y2="2830.435"><stop offset="0" style="stop-color:#ffdb44"/><stop offset="1" style="stop-color:#feef06"/></linearGradient><path style="fill:url(#ad)" d="M905.421 2819.428c-121.085 0-247.701-11.565-247.701-33.872 0-1.225.437-3.378 1.662-3.378 1.225 0 .698 1.684.698 2.909 0 14.147 100.759 29.909 245.341 29.909 144.583 0 245.341-15.762 245.341-29.909 0-1.225.209-2.373 1.434-2.373 1.225 0 .93 1.635.93 2.86 0 22.307-126.62 33.854-247.705 33.854z"/><path style="fill:#fcb048" d="M882.029 2786.877a130.01 130.01 0 0 1 7.78-4.977c2.741-1.635 6.312-3.113 10.635-4.433 4.35-1.32 9.79-2.394 16.32-3.228 6.53-.833 14.695-1.272 24.444-1.32 9.567-.047 18.54.257 26.944.912 8.378.652 15.773 1.632 22.157 2.934 6.359 1.301 11.553 2.912 15.556 4.825 3.976 1.919 6.346 4.115 7.11 6.591l27.874.282c2.023.012 3.813.176 5.344.494 1.557.318 2.311.719 2.313 1.206l.011 2.294-35.835-.344c-1.257 2.811-4.459 5.382-9.608 7.714-5.122 2.335-11.672 4.354-19.65 6.063l-13.051-1.816c-1.168-.178-2.129-.405-2.882-.681-.754-.274-1.118-.573-1.12-.897-.002-.442 1.007-.945 3.026-1.509 2.02-.567 4.298-1.269 6.835-2.106a68.804 68.804 0 0 0 7.479-2.957c2.432-1.136 4.059-2.494 4.906-4.074l-84.583-.839c-2.222 1.635-4.729 3.241-7.47 4.82-2.767 1.579-6.415 3-10.973 4.262-4.557 1.262-10.231 2.286-17.02 3.075-6.815.786-15.344 1.205-25.663 1.255-7.752.039-15.3-.255-22.692-.879-7.393-.626-13.957-1.562-19.694-2.807-5.736-1.249-10.437-2.79-14.128-4.626-3.665-1.838-5.724-3.948-6.15-6.334l-22.948-.235c-2.023-.012-3.813-.171-5.422-.478-1.583-.306-2.389-.713-2.392-1.222l-.011-2.295 31.376.299c1.388-2.418 4.23-4.526 8.577-6.319 4.347-1.797 9.655-3.393 15.923-4.791l10.508 1.443c3.191.448 4.775.972 4.779 1.575.002.325-.645.728-1.965 1.209-1.346.482-2.898 1.058-4.71 1.727a43.075 43.075 0 0 0-5.226 2.358c-1.707.9-2.972 1.919-3.822 3.061l77.118.768zm-77.408 3.128c.63 1.506 2.036 2.8 4.168 3.89 2.131 1.094 4.78 1.989 7.973 2.692 3.193.703 6.774 1.217 10.742 1.546 3.995.329 8.17.483 12.525.462 5.082-.025 9.515-.245 13.298-.656 3.758-.415 7.075-.974 9.949-1.685 2.849-.71 5.359-1.532 7.481-2.471a41.691 41.691 0 0 0 5.715-3.053l-71.851-.725zm184.135-2.053c-.63-1.525-2.166-2.862-4.557-4.01-2.391-1.146-5.455-2.113-9.167-2.893-3.711-.783-8.044-1.365-12.998-1.745-4.929-.381-10.374-.557-16.338-.529-5.289.026-9.878.264-13.687.71-3.81.449-7.126 1.049-9.948 1.807-2.797.755-5.204 1.636-7.143 2.641a50.775 50.775 0 0 0-5.481 3.228l79.319.791z"/><linearGradient id="ae" gradientUnits="userSpaceOnUse" x1="758.93" y1="1305.498" x2="768.119" y2="1382.429" gradientTransform="rotate(180 834.625 2063.92)"><stop offset=".004" style="stop-color:#f36f56"/><stop offset=".306" style="stop-color:#f99c4c"/><stop offset=".545" style="stop-color:#fdb946"/><stop offset=".682" style="stop-color:#ffc444"/><stop offset=".804" style="stop-color:#ffc244"/><stop offset=".867" style="stop-color:#feba46"/><stop offset=".916" style="stop-color:#fcad49"/><stop offset=".958" style="stop-color:#f99a4d"/><stop offset=".996" style="stop-color:#f58152"/><stop offset="1" style="stop-color:#f57e53"/></linearGradient><path style="fill:url(#ae)" d="M905.455 2756.438c-110.382 0-225.314 9.713-243.698 28.516a22.519 22.519 0 0 1 2.009 2.116c15.495-13.055 110.397-26.198 241.688-26.198 134.662 0 231.085 13.829 242.765 27.205a22.4 22.4 0 0 1 1.851-2.097c-15.182-19.47-132.272-29.542-244.615-29.542z"/></g><g><linearGradient id="af" gradientUnits="userSpaceOnUse" x1="1872.122" y1="2621.237" x2="2441.726" y2="2621.237" gradientTransform="rotate(54.578 1330.437 2030.999)"><stop offset="0" style="stop-color:#fcb148"/><stop offset=".052" style="stop-color:#fdba46"/><stop offset=".142" style="stop-color:#ffc244"/><stop offset=".318" style="stop-color:#ffc444"/><stop offset=".485" style="stop-color:#fdb946"/><stop offset=".775" style="stop-color:#f99c4d"/><stop offset=".866" style="stop-color:#f8924f"/><stop offset="1" style="stop-color:#f8924f"/></linearGradient><path style="fill:url(#af)" d="m1223.398 2823.796-44.745 31.827c-14.459 10.285 38.064 108.939 117.312 220.351 79.248 111.413 155.213 193.394 169.671 183.11l44.745-31.827-286.983-403.461z"/><linearGradient id="ag" gradientUnits="userSpaceOnUse" x1="2159.541" y1="2557.08" x2="2189.566" y2="2808.435" gradientTransform="rotate(54.578 1330.437 2030.999)"><stop offset="0" style="stop-color:#ffdb44"/><stop offset="1" style="stop-color:#feef06"/></linearGradient><path style="fill:url(#ag)" d="M1510.381 3227.257c-14.458 10.284-90.423-71.696-169.671-183.109-79.248-111.413-131.771-210.067-117.312-220.352 14.458-10.284 90.422 71.696 169.671 183.109 79.247 111.413 131.77 210.068 117.312 220.352z"/><linearGradient id="ah" gradientUnits="userSpaceOnUse" x1="2158.236" y1="2545.874" x2="2167.456" y2="2623.066" gradientTransform="rotate(54.578 1330.437 2030.999)"><stop offset="0" style="stop-color:#ffdb44"/><stop offset="1" style="stop-color:#feef06"/></linearGradient><path style="fill:url(#ah)" d="M1338.905 3045.431c-70.184-98.67-134.15-208.552-115.972-221.481.998-.71 3.006-1.602 3.716-.603.71.998-.968 1.545-1.966 2.255-11.528 8.199 34.031 99.442 117.835 217.26s155.05 190.788 166.579 182.588c.998-.71 2.055-1.205 2.765-.207.71.998-.794 1.705-1.792 2.415-18.179 12.931-100.981-83.557-171.165-182.227z"/><path style="fill:#fcb048" d="M1351.871 3007.502a129.619 129.619 0 0 1 8.564 3.455c2.921 1.285 6.195 3.339 9.777 6.097 3.597 2.779 7.625 6.589 12.088 11.427 4.464 4.838 9.554 11.237 15.244 19.154 5.584 7.769 10.537 15.258 14.875 22.486 4.325 7.205 7.812 13.798 10.453 19.756 2.625 5.937 4.323 11.102 5.084 15.472.741 4.353.325 7.557-1.249 9.615l15.927 22.878c1.162 1.656 2.066 3.209 2.694 4.641.644 1.454.754 2.3.358 2.584l-1.864 1.34-20.49-29.401c-3.019.605-6.97-.514-11.855-3.358-4.871-2.821-10.313-6.989-16.33-12.499l-6.086-11.687c-.531-1.054-.903-1.969-1.114-2.743-.214-.773-.182-1.242.082-1.432.359-.258 1.354.273 2.984 1.592a162.62 162.62 0 0 0 5.677 4.349 68.953 68.953 0 0 0 6.745 4.381c2.335 1.323 4.384 1.862 6.164 1.637l-48.343-69.412c-2.621-.863-5.382-1.975-8.257-3.294-2.89-1.34-6.164-3.489-9.834-6.47-3.669-2.982-7.792-7.012-12.37-12.087-4.592-5.098-9.875-11.806-15.899-20.185a255.223 255.223 0 0 1-12.436-19.001c-3.775-6.388-6.817-12.279-9.127-17.675-2.308-5.398-3.776-10.123-4.42-14.194-.626-4.052-.1-6.952 1.597-8.684l-13.109-18.836c-1.162-1.656-2.071-3.206-2.754-4.694-.669-1.468-.804-2.36-.391-2.658l1.864-1.34 17.943 25.741c2.775-.271 6.141.823 10.122 3.327 3.983 2.501 8.36 5.901 13.133 10.198l4.915 9.399c1.484 2.861 1.975 4.456 1.486 4.807-.265.19-.967-.104-2.125-.9-1.173-.817-2.543-1.749-4.137-2.838a43.09 43.09 0 0 0-4.95-2.892c-1.723-.87-3.287-1.31-4.71-1.34l44.074 63.284zm-47.416-61.265c-.862 1.385-1.102 3.282-.755 5.651.345 2.37 1.151 5.048 2.428 8.058 1.278 3.009 2.934 6.225 4.967 9.649a144.007 144.007 0 0 0 6.884 10.475c2.966 4.127 5.714 7.612 8.243 10.456 2.516 2.821 4.894 5.2 7.139 7.13 2.23 1.91 4.355 3.479 6.35 4.665a41.51 41.51 0 0 0 5.801 2.887l-41.057-58.971zm108.402 148.858c.878-1.397 1.077-3.424.627-6.039-.453-2.612-1.441-5.67-2.957-9.146-1.514-3.479-3.551-7.347-6.112-11.604-2.547-4.237-5.559-8.777-9.039-13.62-3.087-4.295-5.94-7.896-8.512-10.742-2.573-2.844-4.984-5.198-7.238-7.059-2.236-1.842-4.349-3.293-6.293-4.29a50.761 50.761 0 0 0-5.808-2.595l45.332 65.095z"/><linearGradient id="ai" gradientUnits="userSpaceOnUse" x1="-497.088" y1="1512.414" x2="-487.9" y2="1589.33" gradientTransform="rotate(-125.422 818.043 1808.052)"><stop offset=".004" style="stop-color:#f36f56"/><stop offset=".306" style="stop-color:#f99c4c"/><stop offset=".545" style="stop-color:#fdb946"/><stop offset=".682" style="stop-color:#ffc444"/><stop offset=".804" style="stop-color:#ffc244"/><stop offset=".867" style="stop-color:#feba46"/><stop offset=".916" style="stop-color:#fcad49"/><stop offset=".958" style="stop-color:#f99a4d"/><stop offset=".996" style="stop-color:#f58152"/><stop offset="1" style="stop-color:#f57e53"/></linearGradient><path style="fill:url(#ai)" d="M1390.254 3008.948c-63.98-89.948-138.513-177.974-164.491-182.057a22.194 22.194 0 0 1-.559 2.864c19.62 5.061 85.339 74.775 161.439 181.762 78.054 109.733 122.674 196.322 118.544 213.594.93.042 1.859.135 2.782.293 7.063-23.657-52.598-124.91-117.715-216.456z"/></g></g><g><linearGradient id="aj" gradientUnits="userSpaceOnUse" x1="2239.293" y1="2439.604" x2="2465.46" y2="2781.425"><stop offset="0" style="stop-color:#aa80f9"/><stop offset=".996" style="stop-color:#6165d7"/></linearGradient><path style="fill:url(#aj)" d="m2670.99 3117.262-22.402 1.761c-5.821.46-11.643.23-17.387-.727l-88.85-14.476-1.455-.23-103.249-16.85-.64-.039-80.91-13.097v-455.238l81.396-.049h.153l103.249 5.137 1.531.77 124.886 4.808 3.678 488.23z"/><linearGradient id="ak" gradientUnits="userSpaceOnUse" x1="2943.222" y1="2643.189" x2="2612.263" y2="3202.143"><stop offset="0" style="stop-color:#aa80f9"/><stop offset=".996" style="stop-color:#6165d7"/></linearGradient><path style="fill:url(#ak)" d="M2985.173 2647.346v424.901c0 15.203-11.678 27.624-26.784 28.522l-296.33 17.627c-11.987.713-22.215-9.241-22.215-21.597v-442.672c0-12.365 9.695-22.618 21.728-22.953l298.466-8.318c13.842-.386 25.135 10.603 25.135 24.49z"/><linearGradient id="al" gradientUnits="userSpaceOnUse" x1="2701.945" y1="2467.115" x2="2649.514" y2="2651.873"><stop offset=".004" style="stop-color:#e38ddd"/><stop offset="1" style="stop-color:#9571f6"/></linearGradient><path style="fill:url(#al)" d="m2356.732 2618.374 283.112 13.405 320.193-8.923-328.275-10.695z"/><linearGradient id="am" gradientUnits="userSpaceOnUse" x1="2966.416" y1="2657.421" x2="2632.495" y2="3221.376"><stop offset=".004" style="stop-color:#e38ddd"/><stop offset="1" style="stop-color:#9571f6"/></linearGradient><path style="opacity:.3;fill:url(#am)" d="m2959.615 2622.868-233.75 6.513c-13.297.371-24.154 11.586-24.139 25.172.025 22.673 3.807 46.106 13.787 68.713 33.274 75.371 107.656 78.154 123.133 147.335 12.895 57.642-32.767 82.442-37.593 156.099-1.268 19.35.406 40.166 6.167 62.482 3.032 11.747 13.954 19.749 25.859 19.041l128.686-7.655c13.203-.786 23.407-11.637 23.407-24.92V2647.77c.001-14.12-11.482-25.294-25.557-24.902z"/><linearGradient id="an" gradientUnits="userSpaceOnUse" x1="2757.168" y1="2660.727" x2="2891.549" y2="3337.701"><stop offset="0" style="stop-color:#ab316d"/><stop offset="1" style="stop-color:#792d3d"/></linearGradient><path style="fill:url(#an)" d="m2743.711 3113.539 109.869-6.536v-481.18l-109.869 3.062z"/><linearGradient id="ao" gradientUnits="userSpaceOnUse" x1="2777.541" y1="2871.362" x2="3015.566" y2="2836.161"><stop offset="0" style="stop-color:#ab316d"/><stop offset="1" style="stop-color:#792d3d"/></linearGradient><path style="fill:url(#ao)" d="m2748.659 3113.244 104.921-6.241v-481.18l-104.921 2.924z"/><linearGradient id="ap" gradientUnits="userSpaceOnUse" x1="2467.858" y1="2866.148" x2="2695.046" y2="2832.55"><stop offset="0" style="stop-color:#ab316d"/><stop offset="1" style="stop-color:#792d3d"/></linearGradient><path style="fill:url(#ap)" d="M2539.419 2624.914v478.907l-100.648-17.081v-464.545l32.056-.611z"/><linearGradient id="aq" gradientUnits="userSpaceOnUse" x1="2617.556" y1="2630.853" x2="3122.573" y2="2556.168"><stop offset="0" style="stop-color:#ab316d"/><stop offset="1" style="stop-color:#792d3d"/></linearGradient><path style="fill:url(#aq)" d="m2549.741 2614.014 306.276 17.414h-110.113l-267.773-15.796z"/><linearGradient id="ar" gradientUnits="userSpaceOnUse" x1="2873.536" y1="2482.624" x2="2748.408" y2="2612.757"><stop offset="0" style="stop-color:#ab316d"/><stop offset="1" style="stop-color:#792d3d"/></linearGradient><path style="fill:url(#ar)" d="M2698.773 2599.312c7.132-43.691 12.344-75.621 40.875-105.107 12.031-12.434 25.169-26.012 46.715-29.614 24.777-4.142 56.402 5.624 65.066 25.86 8.227 19.214-11.155 31.734-2.92 53.804 8.276 22.181 32.394 21.708 35.036 39.624 2.238 15.174-12.574 32.39-27.528 40.458-25.824 13.933-40.487-5.668-90.926-2.502-34.758 2.182-54.819 13.186-64.232 2.086-4.482-5.285-4.043-12.624-2.086-24.609z"/><g style="opacity:.3"><linearGradient id="as" gradientUnits="userSpaceOnUse" x1="2893.686" y1="2501.999" x2="2768.558" y2="2632.133"><stop offset="0" style="stop-color:#ab316d"/><stop offset="1" style="stop-color:#792d3d"/></linearGradient><path style="fill:url(#as)" d="M2836.83 2582.211c-31.141-11.91-47.102-37.83-60.896-31.699-12.258 5.449-4.779 28.198-19.186 46.714-13.157 16.908-37.287 20.93-58.729 20.947.541 2.165 1.421 4.075 2.838 5.747 9.413 11.1 29.475.096 64.232-2.086 50.439-3.166 65.102 16.435 90.926 2.502 13.719-7.402 27.28-22.502 27.704-36.663-14.552 1.565-30.739.715-46.889-5.462z"/></g><linearGradient id="at" gradientUnits="userSpaceOnUse" x1="2577.878" y1="2534.5" x2="2910.194" y2="2485.354"><stop offset="0" style="stop-color:#ab316d"/><stop offset="1" style="stop-color:#792d3d"/></linearGradient><path style="fill:url(#at)" d="M2510.664 2491.285c20.948-16.533 43.031 1.905 68.82-16.267 26.121-18.405 18.532-47.935 38.79-56.307 23.535-9.728 58.396 19.954 75.077 38.79 42.371 47.844 62.27 132.785 28.779 162.666-12.57 11.215-48.163 6.593-118.837-3.108-80.78-11.088-92.406-19.03-100.137-29.425-20.834-28.013-16.207-77.632 7.508-96.349z"/><g style="opacity:.3"><linearGradient id="au" gradientUnits="userSpaceOnUse" x1="2581.744" y1="2560.641" x2="2914.059" y2="2511.496"><stop offset="0" style="stop-color:#ab316d"/><stop offset="1" style="stop-color:#792d3d"/></linearGradient><path style="fill:url(#au)" d="M2643.299 2527.155c-11.642-3.672-16.945 9.651-40.875 15.015-4.391.984-46.591 9.801-69.238-16.684-8.985-10.508-13.202-24.64-12.712-39.625-3.304 1.149-6.571 2.866-9.811 5.423-23.715 18.717-28.342 68.335-7.508 96.348 7.731 10.395 19.357 18.337 100.137 29.425 70.674 9.701 106.267 14.323 118.837 3.108 1.689-1.507 3.207-3.19 4.628-4.965-16.956-.559-34.745-4.665-47.589-17.141-24.781-24.072-16.078-64.662-35.869-70.904z"/></g><linearGradient id="av" gradientUnits="userSpaceOnUse" x1="2515.124" y1="2626.725" x2="2798.46" y2="2584.823"><stop offset="0" style="stop-color:#ab316d"/><stop offset="1" style="stop-color:#792d3d"/></linearGradient><path style="fill:url(#av)" d="m2648.318 2623.039-107.423 4.059-103.402-4.903 33.433-.611 146.373-2.605z"/></g></svg>