<?xml version="1.0" encoding="utf-8"?>
<!-- Generator: Adobe Illustrator 27.5.0, SVG Export Plug-In . SVG Version: 6.00 Build 0)  -->
<svg version="1.1" id="Capa_1" xmlns="http://www.w3.org/2000/svg" xmlns:xlink="http://www.w3.org/1999/xlink" x="0px" y="0px"
	 viewBox="0 0 425.196 425.197" style="enable-background:new 0 0 425.196 425.197;" xml:space="preserve">
<rect y="0" style="fill:#FFF0;" width="425.196" height="425.197"/>
<path style="fill:#DFDDDE;" d="M57.726,362.725c0,4.934,72.628,8.934,162.222,8.934c89.593,0,162.222-4,162.222-8.934
	c0-4.934-72.629-8.934-162.222-8.934C130.354,353.791,57.726,357.791,57.726,362.725z"/>
<g>
	<g>
		
			<rect x="158.524" y="97.49" transform="matrix(0.3119 -0.9501 0.9501 0.3119 12.6215 235.3282)" style="fill:#B2B2B2;" width="20.508" height="22.921"/>
		
			<rect x="165.787" y="107.518" transform="matrix(0.3119 -0.9501 0.9501 0.3119 15.3589 243.8758)" style="fill:#B2B2B2;" width="20.508" height="7.633"/>
		
			<rect x="151.831" y="102.974" transform="matrix(0.3118 -0.9502 0.9502 0.3118 11.8966 226.1879)" style="fill:#FFFFFF;" width="20.509" height="3.816"/>
	</g>
	<g>
		<path style="fill:#C6C6C6;" d="M150.786,102.726l1.786-5.444c1.871-5.698,6.719-9.221,10.829-7.872l21.29,6.99
			c4.108,1.35,5.926,7.059,4.055,12.758l-1.787,5.443L150.786,102.726z"/>
		<path style="fill:#D8D8D8;" d="M152.572,97.282c0.383-1.164,0.893-2.233,1.492-3.191c8.182,10.494,24.891,15.448,34.984,7.403
			c0.631,2.246,0.588,4.953-0.303,7.665l-1.787,5.443l-36.173-11.876L152.572,97.282z"/>
		<path style="fill:#FFF0;" d="M162.961,91.581c-0.164,0.453,0.74,1.196,2.02,1.658l18.358,6.638
			c1.28,0.463,2.451,0.47,2.615,0.016l0,0c0.163-0.454-0.742-1.197-2.021-1.659l-18.358-6.638
			C164.295,91.135,163.124,91.127,162.961,91.581L162.961,91.581z"/>
	</g>
	<g>
		
			<rect x="51.036" y="137.908" transform="matrix(0.5199 -0.8542 0.8542 0.5199 -96.5602 124.5261)" style="fill:#B2B2B2;" width="22.921" height="20.509"/>
		
			<rect x="54.706" y="144.437" transform="matrix(0.5199 -0.8542 0.8542 0.5199 -104.0459 124.2656)" style="fill:#B2B2B2;" width="7.634" height="20.509"/>
		
			<rect x="63.035" y="130.468" transform="matrix(0.5198 -0.8543 0.8543 0.5198 -89.0317 123.0565)" style="fill:#FFFFFF;" width="3.816" height="20.509"/>
	</g>
	<path style="fill:#B2B2B2;" d="M219.986,167.11c16.258,44.067-6.287,92.972-50.354,109.23
		c-44.065,16.258-92.971-6.287-109.23-50.354c-16.256-44.066,6.287-92.97,50.354-109.229
		C154.823,100.501,203.727,123.043,219.986,167.11z"/>
	<path style="fill:#FFFFFF;" d="M114.609,120.084c-20.191,7.449-35.405,22.553-43.745,41.006
		c8.694-16.287,22.982-29.469,41.417-36.271c40.795-15.051,86.443,6.836,101.959,48.887c7.836,21.239,6.48,43.557-2.031,62.388
		c10.546-19.754,12.861-44.076,4.358-67.124C201.053,126.919,155.404,105.033,114.609,120.084z"/>
	<path style="fill:#D8D8D8;" d="M174.676,269.625c-51.319,20.288-94.731-7.429-110.99-51.497
		c-7.311-19.814-4.559-44.671,2.251-63.035c-11.673,20.933-14.479,46.644-5.534,70.893c16.259,44.067,65.164,66.612,109.23,50.354
		c24.253-8.947,41.981-27.784,50.317-50.26C210.406,243.189,194.321,261.859,174.676,269.625z"/>
	<path style="fill:#B2B2B2;" d="M205.122,172.594c13.229,35.858-5.115,75.653-40.974,88.882
		c-35.857,13.229-75.65-5.115-88.881-40.974c-13.23-35.857,5.115-75.65,40.973-88.88
		C152.098,118.394,191.893,136.736,205.122,172.594z"/>
	<path style="fill:#61B9D9;" d="M202.16,173.688c12.625,34.223-4.883,72.2-39.105,84.827c-34.221,12.625-72.199-4.882-84.826-39.104
		c-12.625-34.223,4.883-72.2,39.104-84.826C151.556,121.959,189.533,139.464,202.16,173.688z"/>
	<path style="fill:#D8D8D8;" d="M173.041,242.902c-34.223,12.627-72.201-4.88-84.826-39.104c-6.285-17.034-5.1-34.996,1.893-50.3
		c-15.096,17.594-20.473,42.619-11.879,65.912c12.627,34.223,50.605,51.729,84.826,39.104c17.189-6.342,30.156-19.081,37.212-34.525
		C193.184,232.244,183.971,238.87,173.041,242.902z"/>
	<path style="fill:#004878;" d="M197.616,173.917c-12.155-30.866-46.599-46.632-77.935-35.581l20.892,56.626L197.616,173.917z"/>
	<path style="fill:#B0BFC9;" d="M197.616,173.917c-6.526-16.571-19.476-28.79-34.921-34.844
		c22.968,20.508,27.154,31.231,12.762,37.819c-14.5,6.639-34.885,18.069-34.885,18.069L197.616,173.917z"/>
	<path style="fill:#C6C6C6;" d="M102.739,54.047l-26.616,9.82c-7.782,2.871-11.764,11.507-8.893,19.289l6.932,18.788
		c2.871,7.783,11.508,11.764,19.29,8.893l26.616-9.82c7.782-2.871,11.764-11.507,8.893-19.29l-6.932-18.788
		C119.158,55.158,110.521,51.177,102.739,54.047z M118.671,81.967c1.913,5.188-0.74,10.945-5.929,12.858L95,101.371
		c-5.188,1.913-10.944-0.74-12.857-5.928l-4.622-12.525c-1.913-5.189,0.739-10.945,5.927-12.858l17.744-6.546
		c5.188-1.913,10.943,0.739,12.857,5.927L118.671,81.967z"/>
	<g>
		<path style="fill:#B2B2B2;" d="M100.146,60.685l-17.744,6.546c-5.186,1.914-7.84,7.67-5.925,12.858l1.043,2.829
			c-1.913-5.189,0.739-10.945,5.927-12.858l17.744-6.546c5.188-1.913,10.943,0.739,12.857,5.927l-1.043-2.829
			C111.092,61.424,105.334,58.771,100.146,60.685z"/>
		<path style="fill:#B2B2B2;" d="M119.025,98.188l-26.617,9.82c-7.781,2.871-16.42-1.11-19.29-8.893l1.044,2.828
			c2.871,7.783,11.508,11.764,19.29,8.893l26.616-9.82c7.782-2.871,11.764-11.507,8.893-19.29l-1.043-2.829
			C130.788,86.681,126.807,95.317,119.025,98.188z"/>
	</g>
	<path style="fill:#C6C6C6;" d="M116.561,108.098c1.615,4.375-0.623,9.23-4.999,10.845c-4.375,1.614-9.23-0.624-10.846-4.999
		c-1.614-4.376,0.626-9.23,5.001-10.845C110.093,101.484,114.946,103.721,116.561,108.098z"/>
	<path style="fill:#FFFFFF;" d="M115.26,108.578c1.35,3.656-12.72-2.83-9.063-4.179C109.854,103.05,113.91,104.919,115.26,108.578z"
		/>
	<path style="fill:#B2B2B2;" d="M113.041,115.608c-4.375,1.614-9.23-0.623-10.846-4.998c-0.564-1.531-0.648-3.119-0.344-4.607
		c-1.631,2.21-2.156,5.17-1.136,7.94c1.615,4.375,6.471,6.614,10.846,4.999c2.845-1.05,4.778-3.472,5.345-6.239
		C115.96,113.985,114.646,115.016,113.041,115.608z"/>
	<path style="fill:#C6C6C6;" d="M147.646,192.353c1.613,4.375-0.623,9.229-5,10.844c-4.375,1.614-9.23-0.625-10.845-4.999
		c-1.614-4.377,0.626-9.231,4.999-10.845C141.178,185.739,146.032,187.976,147.646,192.353z"/>
	<path style="fill:#FFFFFF;" d="M146.346,192.833c1.349,3.656-12.72-2.829-9.064-4.179
		C140.939,187.305,144.996,189.175,146.346,192.833z"/>
	<path style="fill:#FFFFFF;" d="M203.012,180.521c6.684,18.115-5.42-17.552-37.996-32.285
		c-33.211-15.019-64.773-4.972-47.709-11.268C151.164,124.477,189.523,143.962,203.012,180.521z"/>
	<path style="fill:#B2B2B2;" d="M144.126,199.863c-4.376,1.614-9.232-0.624-10.845-4.999c-0.566-1.531-0.649-3.118-0.345-4.607
		c-1.63,2.21-2.157,5.17-1.135,7.941c1.614,4.374,6.47,6.612,10.845,4.999c2.845-1.05,4.778-3.472,5.344-6.239
		C147.045,198.24,145.731,199.271,144.126,199.863z"/>
	<g>
		<path style="fill:#C6C6C6;" d="M72.135,131.744l-4.895-2.979c-5.123-3.118-11.098-2.648-13.346,1.047l-11.649,19.142
			c-2.247,3.695,0.08,9.217,5.204,12.334l4.895,2.98L72.135,131.744z"/>
		<path style="fill:#D8D8D8;" d="M67.24,128.765c-1.046-0.637-2.129-1.119-3.207-1.458c0.596,13.293-8.893,27.911-21.793,28.351
			c0.98,2.117,2.77,4.148,5.209,5.631l4.895,2.98l19.791-32.524L67.24,128.765z"/>
		<path style="fill:#FFFFFF;" d="M55.639,131.177c0.419,0.237,0.215,1.391-0.457,2.572l-9.649,16.972
			c-0.673,1.183-1.558,1.949-1.978,1.71l0,0c-0.42-0.24-0.213-1.392,0.459-2.574l9.648-16.972
			C54.334,131.703,55.221,130.937,55.639,131.177L55.639,131.177z"/>
	</g>
	<g>
		<path style="fill:#FFFFFF;" d="M102.979,54.976l-25.146,9.276c-4.281,1.58-7.387,4.867-8.746,8.68
			c1.615-2.958,4.342-5.422,7.869-6.724l25.145-9.276c7.352-2.712,15.354,0.622,17.871,7.445l6.078,16.477
			c1.053,2.851,0.969,5.856-0.006,8.591c1.75-3.208,2.193-6.997,0.884-10.547L120.85,62.42
			C118.332,55.597,110.331,52.263,102.979,54.976z"/>
	</g>
</g>
<g>
	<rect x="192.191" y="310.354" style="fill:#878787;" width="159.885" height="7.707"/>
	<rect x="181.735" y="220.621" style="fill:#BEBEBE;" width="17.429" height="104.121"/>
	<rect x="192.191" y="172.802" style="fill:#9D9D9C;" width="166.943" height="141.406"/>
	<polygon style="fill:#DCDCDC;" points="350.932,179.751 200.395,179.751 200.395,307.259 	"/>
	<path style="fill:#E73A3A;" d="M187.256,213.215c0-7.624-3.086-10.748-7.913-10.748c-16.279,0-52.374,0-56.855,0
		c-5.809,0-6.457,2.305-7.58,5.048c-1.119,2.741-25.024,61.464-27.527,67.345c-2.504,5.882-2.939,9.801-2.939,14.302
		c0,4.503,0,32.385,0,32.385h102.815C187.256,321.547,187.256,220.839,187.256,213.215z"/>
	<path style="fill:#E6D7DF;" d="M179.343,202.467h-5.963c5.606,19.488,4.568,41.454-2.683,59.204
		c-7.551,18.476-20.375,31.348-38.774,38.968c-13.415,5.556-32.702,11.192-47.481,5.876c0,7.732,0,15.032,0,15.032h102.815
		c0,0,0-100.708,0-108.332C187.256,205.591,184.17,202.467,179.343,202.467z"/>
	<path style="fill:#A1D2D9;stroke:#8C2B1B;stroke-width:2.3337;stroke-miterlimit:10;" d="M179.007,218.493H119.77
		c-4.202,10.347-18.258,45.01-19.895,49.39c-0.377,1.007-0.652,1.915-0.838,2.734h51.628l7.118-9.226l21.224-3.742V218.493z"/>
	<polygon style="fill:#FFFFFF;" points="173.662,221.977 122.343,221.977 105.109,264.764 	"/>
	<path style="fill:#DADADA;" d="M84.441,318.061c6.389,0,269.332,0,274.686,0c5.353,0,7.475,16.696,0,16.696
		c-7.475,0-268.74,0-274.686,0C78.494,334.757,78.052,318.061,84.441,318.061z"/>
	<path style="fill:#B7312D;" d="M171.45,334.757c0.321-1.936,0.497-3.921,0.497-5.948c0-19.939-16.162-36.1-36.098-36.1
		c-19.937,0-36.098,16.161-36.098,36.1c0,2.027,0.175,4.012,0.495,5.948H171.45z"/>
	<path style="fill:#352E35;" d="M171.947,278.862c-0.145-2.782-1.138-4.944-2.355-4.944h-11.891c-1.217,0-2.211,2.162-2.357,4.944
		H171.947z"/>
	<path style="fill:#251F24;" d="M135.85,300.055c-15.881,0-28.753,12.872-28.753,28.753c0,15.879,12.872,28.751,28.753,28.751
		c15.879,0,28.752-12.872,28.752-28.751C164.602,312.927,151.729,300.055,135.85,300.055z"/>
	<path style="fill:#C6C6C6;" d="M135.85,347.261c-10.192,0-18.454-8.261-18.454-18.452c0-10.191,8.262-18.454,18.454-18.454
		c10.191,0,18.455,8.263,18.455,18.454C154.305,339,146.041,347.261,135.85,347.261z"/>
	<path style="fill:#A1A1A1;" d="M135.85,334.701c-3.256,0-5.893-2.639-5.893-5.894c0-3.254,2.638-5.893,5.893-5.893
		c3.255,0,5.895,2.639,5.895,5.893C141.744,332.063,139.105,334.701,135.85,334.701z"/>
	<path style="fill:#575756;" d="M338.613,334.757c0.32-1.936,0.496-3.921,0.496-5.948c0-19.939-16.162-36.1-36.098-36.1
		c-19.938,0-36.1,16.161-36.1,36.1c0,2.027,0.176,4.012,0.497,5.948H338.613z"/>
	<path style="fill:#251F24;" d="M303.012,300.055c-15.881,0-28.754,12.872-28.754,28.753c0,15.879,12.873,28.751,28.754,28.751
		c15.879,0,28.752-12.872,28.752-28.751C331.764,312.927,318.891,300.055,303.012,300.055z"/>
	<path style="fill:#C6C6C6;" d="M303.012,347.261c-10.193,0-18.455-8.261-18.455-18.452c0-10.191,8.262-18.454,18.455-18.454
		c10.191,0,18.453,8.263,18.453,18.454C321.465,339,313.203,347.261,303.012,347.261z"/>
	<path style="fill:#A1A1A1;" d="M303.01,334.701c-3.254,0-5.892-2.639-5.892-5.894c0-3.254,2.638-5.893,5.892-5.893
		c3.256,0,5.895,2.639,5.895,5.893C308.904,332.063,306.266,334.701,303.01,334.701z"/>
	<g>
		<path style="fill:#30302F;" d="M257.033,220.224v9.945c0,0.492-0.223,0.741-0.67,0.741h-3.158c-0.475,0-0.706-0.249-0.706-0.741
			v-22.597c0-0.489,0.232-0.735,0.706-0.735h11.023c0.315,0,0.531,0.019,0.656,0.067c0.123,0.048,0.188,0.157,0.188,0.316
			c0,0.074-0.035,0.235-0.105,0.496l-0.639,2.353c-0.11,0.374-0.367,0.559-0.771,0.559h-6.523v5.801h5.72
			c0.312,0,0.505,0.038,0.585,0.122c0.08,0.082,0.119,0.289,0.119,0.614v2.322c0,0.49-0.235,0.735-0.704,0.735H257.033z"/>
		<path style="fill:#30302F;" d="M272.099,224.479l-1.378,5.69c-0.113,0.492-0.352,0.741-0.707,0.741h-3.398
			c-0.424,0-0.646-0.105-0.672-0.32c0-0.093,0.044-0.292,0.136-0.596l6.624-22.63c0.11-0.351,0.355-0.526,0.738-0.526h3.496
			c0.359,0,0.594,0.183,0.707,0.563l6.589,22.667c0.085,0.303,0.134,0.489,0.134,0.56c0,0.187-0.226,0.283-0.672,0.283h-3.766
			c-0.25,0-0.439-0.249-0.572-0.741l-1.479-5.69H272.099z M277.039,221.314l-1.377-6.043c-0.249-1.054-0.496-2.694-0.74-4.921
			h-0.069c-0.179,1.876-0.436,3.513-0.772,4.921l-1.479,6.043H277.039z"/>
		<path style="fill:#30302F;" d="M299.861,208.911l-1.108,2.319c-0.11,0.234-0.235,0.351-0.368,0.351c0.11,0-0.4-0.257-1.529-0.773
			c-1.131-0.514-2.193-0.771-3.181-0.771c-2.104,0-3.157,0.914-3.157,2.737c0,0.799,0.381,1.488,1.142,2.074
			c0.427,0.354,1.318,0.869,2.673,1.548c1.358,0.679,2.381,1.289,3.077,1.826c1.927,1.503,2.891,3.456,2.891,5.87
			c0,2.226-0.677,4.02-2.034,5.376c-1.356,1.358-3.096,2.038-5.229,2.038c-1.567,0-3.169-0.277-4.806-0.843
			c-1.478-0.515-2.221-0.933-2.221-1.264c0-0.048,0.061-0.235,0.172-0.564l0.77-2.322c0.068-0.229,0.193-0.348,0.371-0.348
			c-0.157,0,0.436,0.261,1.783,0.776c1.346,0.511,2.611,0.772,3.798,0.772c2.017,0,3.026-1.077,3.026-3.232
			c0-1.291-0.719-2.342-2.152-3.165c-1.566-0.818-3.137-1.638-4.706-2.459c-1.95-1.244-2.923-3.056-2.923-5.447
			c0-2.391,0.752-4.218,2.25-5.482c1.301-1.125,3.016-1.688,5.145-1.688c1.455,0,2.935,0.286,4.438,0.846
			c1.366,0.515,2.051,0.947,2.051,1.298C300.031,208.497,299.975,208.677,299.861,208.911z"/>
		<path style="fill:#30302F;" d="M310.89,211.052v19.118c0,0.492-0.233,0.741-0.708,0.741h-3.125c-0.469,0-0.704-0.249-0.704-0.741
			v-19.118h-4.406c-0.267,0-0.431-0.048-0.487-0.139c-0.056-0.096-0.082-0.243-0.082-0.459v-3.02c0-0.283,0.047-0.45,0.133-0.51
			c0.092-0.059,0.234-0.086,0.436-0.086h13.851c0.314,0,0.531,0.019,0.655,0.067c0.125,0.048,0.184,0.157,0.184,0.316
			c0,0.074-0.03,0.235-0.1,0.496l-0.703,2.775c-0.094,0.373-0.352,0.559-0.777,0.559H310.89z"/>
	</g>
	<g>
		<g>
			<path style="fill:#30302F;" d="M229.77,238.272l-4.819,23.556c0.761,0.586,1.525,0.84,2.287,0.84
				c4.784,0,7.718-9.997,7.718-18.476c0-5.707-2.371-7.933-5.867-7.933c-5.988,0-10.529,3.821-10.529,10.202
				c0,2.142,0.52,2.475,0.563,2.854c-2.653,0-4.299-1.049-4.299-3.906c0-5.75,6.791-11.081,14.947-11.081
				c7.795,0,10.729,5.667,10.729,12.094c0,9.655-5.182,19.94-11.131,19.94c-1.526,0-3.175-0.67-4.904-2.225l-0.318,1.68h-5.787
				l5.467-26.7L229.77,238.272z"/>
			<path style="fill:#30302F;" d="M249.547,262.54c3.176,0,5.105-1.847,7.113-4.24h1.367c-2.289,3.863-5.705,7.767-11.052,7.767
				c-3.776,0-6.267-1.931-6.267-6.674c0-4.83,2.611-14.949,10.849-14.949c3.575,0,4.421,1.932,4.421,4.031
				c0,4.831-4.421,8.567-9.243,8.858c-0.04,0.589-0.08,1.178-0.08,1.681C246.655,261.871,247.621,262.54,249.547,262.54z
				 M251.881,246.67c-2.053,0-4.023,4.495-4.824,8.649c3.092-0.209,5.826-3.439,5.826-6.927
				C252.883,247.344,252.643,246.67,251.881,246.67z"/>
			<path style="fill:#30302F;" d="M266.913,236.426l-4.622,22.673c-0.119,0.543-0.16,0.963-0.16,1.344
				c0,1.173,0.523,1.552,1.647,1.552c1.567,0,3.016-1.596,3.618-3.694h1.685c-2.288,6.843-6.267,7.767-8.435,7.767
				c-2.414,0-4.301-1.51-4.301-5.04c0-0.797,0.121-1.723,0.32-2.727l4.299-21.035L266.913,236.426z"/>
			<path style="fill:#30302F;" d="M275.92,244.821l-2.897,14.278c-0.118,0.543-0.157,0.963-0.157,1.344
				c0,1.173,0.521,1.552,1.645,1.552c1.57,0,3.016-1.596,3.619-3.694h1.688c-2.291,6.843-6.272,7.767-8.44,7.767
				c-2.409,0-4.299-1.51-4.299-5.04c0-0.797,0.121-1.723,0.319-2.727l2.735-13.48H275.92z M274.107,235.88
				c1.77,0,3.214,1.513,3.214,3.357c0,1.85-1.444,3.318-3.214,3.318c-1.767,0-3.172-1.468-3.172-3.318
				C270.935,237.393,272.341,235.88,274.107,235.88z"/>
			<path style="fill:#30302F;" d="M294.162,247.635c0,6.718-3.255,18.433-11.451,18.433c-3.053,0-4.945-1.638-4.945-4.953
				c0-0.464,0.043-1.219,0.204-2.016l2.894-14.278h5.787l-2.896,14.278c-0.117,0.585-0.198,1.131-0.198,1.511
				c0,0.839,0.401,1.386,1.366,1.386c3.935,0,6.951-9.405,6.951-14.023c-0.12,0.293-0.966,0.42-1.286,0.42
				c-0.965,0-1.444-1.219-1.444-2.144c0-1.301,0.803-2.265,2.49-2.265C293.563,243.984,294.162,245.787,294.162,247.635z"/>
			<path style="fill:#30302F;" d="M303.09,262.54c3.172,0,5.104-1.847,7.113-4.24h1.365c-2.288,3.863-5.704,7.767-11.051,7.767
				c-3.775,0-6.271-1.931-6.271-6.674c0-4.83,2.614-14.949,10.85-14.949c3.579,0,4.421,1.932,4.421,4.031
				c0,4.831-4.421,8.567-9.24,8.858c-0.042,0.589-0.082,1.178-0.082,1.681C300.195,261.871,301.16,262.54,303.09,262.54z
				 M305.423,246.67c-2.052,0-4.023,4.495-4.823,8.649c3.092-0.209,5.826-3.439,5.826-6.927
				C306.426,247.344,306.184,246.67,305.423,246.67z"/>
			<path style="fill:#30302F;" d="M318.728,244.821l-0.525,2.608c1.41-1.265,2.936-2.608,4.863-2.608
				c1.809,0,2.771,1.555,2.771,3.151c0,1.47-0.922,3.065-2.892,3.065c-2.251,0-1.125-2.772-2.329-2.772
				c-1.209,0-1.934,0.628-2.936,1.596l-3.214,15.955h-5.786l4.259-20.996H318.728z"/>
			<path style="fill:#30302F;" d="M333.84,244.821l-2.894,14.278c-0.079,0.336-0.119,0.715-0.119,1.049
				c0,0.967,0.281,1.848,1.205,1.848c1.567,0,2.61-1.596,3.214-3.694l2.734-13.48h5.823l-4.9,24.353
				c-1.206,6.005-4.662,7.143-7.311,7.143c-2.453,0-4.744-1.811-4.744-4.537c0-3.906,3.137-5.12,6.953-6.3l0.4-1.846
				c-1.728,2.059-3.539,2.435-4.902,2.435c-2.412,0-4.299-1.51-4.299-5.04c0-0.797,0.12-1.723,0.321-2.727l2.731-13.48H333.84z
				 M330.662,272.576c0.807,0,1.85-0.797,2.374-3.275l0.482-2.475c-2.529,0.88-4.461,2.098-4.461,4.364
				C329.057,271.779,329.78,272.576,330.662,272.576z"/>
		</g>
	</g>
</g>
</svg>
